<?xml version="1.0" encoding="UTF-8" standalone="no"?>
<!-- Created with Inkscape (http://www.inkscape.org/) -->

<svg
   xmlns:dc="http://purl.org/dc/elements/1.1/"
   xmlns:cc="http://creativecommons.org/ns#"
   xmlns:rdf="http://www.w3.org/1999/02/22-rdf-syntax-ns#"
   xmlns:svg="http://www.w3.org/2000/svg"
   xmlns="http://www.w3.org/2000/svg"
   xmlns:sodipodi="http://sodipodi.sourceforge.net/DTD/sodipodi-0.dtd"
   xmlns:inkscape="http://www.inkscape.org/namespaces/inkscape"
   id="svg8172"
   version="1.1"
   inkscape:version="0.91 r13725"
   width="461.25"
   height="422.8125"
   viewBox="0 0 461.25 422.8125"
   sodipodi:docname="MoslemPraying2.svg">
  <metadata
     id="metadata8178">
    <rdf:RDF>
      <cc:Work
         rdf:about="">
        <dc:format>image/svg+xml</dc:format>
        <dc:type
           rdf:resource="http://purl.org/dc/dcmitype/StillImage" />
        <dc:title></dc:title>
      </cc:Work>
    </rdf:RDF>
  </metadata>
  <defs
     id="defs8176" />
  <sodipodi:namedview
     pagecolor="#ffffff"
     bordercolor="#666666"
     borderopacity="1"
     objecttolerance="10"
     gridtolerance="10"
     guidetolerance="10"
     inkscape:pageopacity="0"
     inkscape:pageshadow="2"
     inkscape:window-width="1600"
     inkscape:window-height="837"
     id="namedview8174"
     showgrid="false"
     inkscape:zoom="1.5846268"
     inkscape:cx="230.625"
     inkscape:cy="211.40625"
     inkscape:window-x="-8"
     inkscape:window-y="-8"
     inkscape:window-maximized="1"
     inkscape:current-layer="svg8172" />
  <path
     style="fill:#000000"
     d="m 162.42187,422.20162 c -2.34229,-0.96513 -1.21035,-4.95311 2.34375,-8.25738 2.66453,-2.47723 3.10941,-3.27465 1.83765,-3.29387 -2.53058,-0.0383 -8.91105,3.48872 -10.00329,5.52959 -2.78019,5.19486 -6.46716,6.07892 -10.58436,2.53794 -2.88636,-2.4824 -3.26325,-4.4822 -1.17187,-6.2179 2.08114,-1.72719 1.7424,-2.44048 -1.64063,-3.45472 l -3.04687,-0.91346 3.98437,-0.71081 c 2.19141,-0.39095 3.98438,-1.06276 3.98438,-1.4929 0,-1.10626 -17.12266,-1.01179 -18.78391,0.10364 -1.19601,0.80304 -1.19166,0.90213 0.0339,0.77127 3.51856,-0.37574 5.70543,0.12088 5.06874,1.15107 -0.73841,1.19478 -25.87851,0.49639 -36.943742,-1.02629 -17.068271,-2.34875 -33.41099,-4.8113 -34.453125,-5.19146 -0.644531,-0.23512 -1.171875,-1.04512 -1.171875,-1.79999 0,-0.75488 -0.84375,-1.64029 -1.875,-1.9676 -1.03125,-0.32731 -1.875,-1.05082 -1.875,-1.6078 0,-0.69813 2.766483,-0.81823 8.90625,-0.38666 4.898438,0.34434 8.90625,0.41875 8.90625,0.16537 0,-0.25338 -3.058594,-1.38668 -6.796875,-2.51844 -3.738281,-1.13176 -8.1808,-2.83141 -9.872265,-3.77699 -3.711161,-2.07465 -4.315892,-2.13469 -3.635252,-0.36097 1.039589,2.70912 -8.200157,3.58724 -11.942748,1.135 -4.17669,-2.73667 -7.230901,-1.98333 -10.71538,2.643 -4.088418,5.42818 -12.580607,8.37368 -10.805516,3.74787 0.293582,-0.76506 -0.137792,-1.62269 -0.978445,-1.94528 -0.826964,-0.31733 -1.503547,-1.10163 -1.503547,-1.74289 0,-1.43008 -8.808901,-0.27036 -10.856927,1.42934 -1.0283143,0.85343 -1.4495122,0.71208 -1.9676734,-0.66034 C 6.5002913,393.12954 4.8077993,389.95245 3.101806,387.02976 1.3958127,384.10705 0,381.06314 0,380.2655 c 0,-2.18496 5.5641988,-8.078 7.6272289,-8.078 0.9943965,0 3.3764751,-0.66205 5.2935081,-1.47122 l 3.485513,-1.47122 -2.952835,-1.25648 C 9.8993231,366.47625 8.2656403,363.94786 9.4330884,361.76646 11.214853,358.43721 25.342003,352.5 31.481969,352.5 c 2.274053,0 1.460921,1.87323 -1.247594,2.8741 -1.417969,0.52399 -4.6875,1.97494 -7.265625,3.22436 -2.578125,1.24941 -5.847656,2.50579 -7.265625,2.79196 -2.819382,0.56899 -3.510444,3.23124 -1.312308,5.05553 0.968987,0.80419 3.084388,0.16185 9.020988,-2.73922 4.265344,-2.08437 7.933961,-3.61096 8.152484,-3.39244 0.466253,0.46625 -4.524588,4.10111 -13.728038,9.99821 -3.621253,2.32031 -6.584579,4.77308 -6.585173,5.4506 -7.15e-4,0.81697 -0.986149,1.13271 -2.925999,0.9375 -2.3198658,-0.23346 -3.0893491,0.142 -3.7197898,1.81502 -0.7319075,1.9423 -0.5294778,2.10938 2.5556209,2.10938 2.415178,0 3.8420069,-0.62486 5.1112119,-2.23839 0.968398,-1.23112 2.864404,-2.51541 4.213348,-2.85397 1.348943,-0.33857 3.570459,-1.40506 4.936702,-2.37 1.366242,-0.96493 3.535457,-2.06182 4.820476,-2.43751 4.219438,-1.23364 0.379422,2.10211 -6.706086,5.82544 C 12.69523,380.14559 7.5,385.54693 7.5,389.06467 c 0,1.78836 0.3573107,1.99118 2.578125,1.4634 1.417969,-0.33697 3.632813,-1.43627 4.921875,-2.44288 1.948116,-1.52125 9.754449,-6.10282 12.453878,-7.30923 0.404321,-0.18071 -0.36692,1.29345 -1.713869,3.27587 -1.346948,1.98243 -2.943381,3.66122 -3.547628,3.73065 -2.737614,0.31456 -2.876725,0.45598 -1.333006,1.35511 0.988183,0.57556 1.640625,2.07914 1.640625,3.78089 0,2.6228 0.218401,2.80426 3.046875,2.53155 2.063722,-0.19899 2.95254,-0.72804 2.754522,-1.63959 -0.733515,-3.37664 1.048383,-5.90863 6.647922,-9.44638 11.116713,-7.02347 12.86304,-8.55008 11.880577,-10.38584 -0.490818,-0.9171 -0.892396,-2.52187 -0.892396,-3.56615 0,-1.04428 -0.987008,-2.86498 -2.193353,-4.046 -2.658026,-2.60224 -7.181647,-10.37428 -7.181647,-12.3388 0,-0.78105 -0.817435,-2.8153 -1.816522,-4.52056 -3.104278,-5.29842 -4.241879,-14.86957 -2.867937,-24.12927 0.655616,-4.41853 1.967454,-10.354 2.915193,-13.18994 0.947739,-2.83594 1.733536,-6.68547 1.746215,-8.55452 0.03371,-4.96997 9.26135,-20.46892 16.396073,-27.53923 3.121936,-3.09375 8.836256,-7.49962 12.698488,-9.79084 6.627105,-3.93142 7.549762,-4.20541 16.39724,-4.86919 5.15625,-0.38684 9.902344,-0.72705 10.546875,-0.75603 0.644531,-0.029 1.171875,-0.73063 1.171875,-1.55924 0,-1.02118 -0.503588,-1.31331 -1.563109,-0.90673 -0.859709,0.3299 -4.12924,0.80065 -7.265625,1.04611 -3.136384,0.24547 -5.069704,0.19381 -4.296266,-0.11479 0.773437,-0.30861 2.735632,-1.1561 4.360433,-1.88332 1.624801,-0.72722 3.366114,-1.32222 3.869583,-1.32222 0.503471,0 1.440588,-0.63281 2.082484,-1.40625 1.583352,-1.90782 0.613551,-1.78068 -7.03125,0.92182 -5.038029,1.78097 -8.468088,2.32448 -14.765625,2.33966 -4.511719,0.0109 -8.203125,-0.3479 -8.203125,-0.79727 0,-0.44938 3.269531,-1.01325 7.265625,-1.25304 8.781826,-0.52699 17.828907,-3.65252 21.418918,-7.39969 1.432064,-1.49475 2.154605,-2.71773 1.605647,-2.71773 -0.548959,0 -1.521004,0.63006 -2.160101,1.40012 -1.799166,2.16786 -15.430797,6.09988 -21.147235,6.09988 -6.951453,0 -6.462019,-1.48367 0.751521,-2.27815 6.420307,-0.70713 18.515625,-5.69564 18.515625,-7.63648 0,-0.80114 -1.790373,-0.30484 -5.390625,1.4943 -5.624632,2.8108 -16.032988,4.84597 -14.830186,2.8998 0.354182,-0.57309 1.687782,-1.04197 2.963556,-1.04197 2.4663,0 11.099007,-4.00373 12.089987,-5.60717 0.813487,-1.31625 0.295239,-1.22477 -5.093046,0.8991 -5.681691,2.23951 -18.993998,3.00224 -20.812303,1.19244 -0.942506,-0.93809 -0.02705,-1.17187 4.588972,-1.17187 7.14982,0 14.748406,-1.56696 16.224722,-3.34581 0.933195,-1.12442 0.525629,-1.34336 -2.51691,-1.35201 C 69.429489,237.16302 63.75,236.15583 63.75,235.28646 c 0,-0.39503 3.480469,-0.68087 7.734375,-0.63522 11.153212,0.11969 13.119994,-1.43735 3.769643,-2.98432 C 67.581712,230.39757 60,227.61134 60,226.06118 c 0,-0.5056 2.214844,-0.14615 4.921875,0.79876 8.770823,3.06155 20.390625,3.59419 20.390625,0.9347 0,-0.52565 -3.259973,-0.91964 -7.609342,-0.91964 -7.075127,0 -7.575877,-0.12797 -7.132672,-1.82279 0.366885,-1.40297 -0.121111,-1.95408 -2.118827,-2.39285 -1.427523,-0.31354 -4.018602,-1.64601 -5.757952,-2.96107 -2.764675,-2.09025 -2.867654,-2.30479 -0.818707,-1.70561 1.289062,0.37697 3.877603,1.45902 5.752313,2.40454 4.259711,2.14843 16.353394,4.95713 17.716636,4.1146 1.252825,-0.7743 0.419559,-5.42822 -1.72015,-9.60733 -1.625323,-3.17445 -5.974971,-5.17648 -9.336602,-4.29739 -2.085293,0.54531 -7.954085,-4.92865 -10.525808,-9.81768 -4.237609,-8.056 -4.937668,-10.26806 -5.050086,-15.95743 -0.140205,-7.09565 0.820082,-8.29736 2.198245,-2.7509 0.548379,2.20696 1.76615,6.12203 2.706159,8.70016 0.940009,2.57812 2.303992,6.58312 3.031074,8.9 1.02725,3.27335 2.05349,4.56961 4.603219,5.81433 4.069731,1.98678 4.6875,2.03473 4.6875,0.36379 0,-0.73046 0.527344,-1.5056 1.171875,-1.72254 1.720877,-0.57919 -0.486657,-2.97303 -4.496246,-4.87571 -3.567064,-1.69268 -4.257613,-3.32362 -1.407241,-3.32362 3.210236,0 6.59422,2.10238 8.595147,5.33995 1.068366,1.72866 3.117213,3.75048 4.552992,4.49295 2.070497,1.0707 2.742419,2.22959 3.248185,5.60228 0.350721,2.33877 1.0337,4.25232 1.517731,4.25232 1.235817,0 1.101391,-5.96617 -0.162912,-7.23047 -0.573633,-0.57363 -0.849341,-1.60722 -0.612685,-2.29687 0.268546,-0.78258 1.190731,-0.0205 2.453352,2.02734 1.778413,2.88444 1.994224,4.43732 1.78456,12.84084 -0.166543,6.67518 0.115082,9.91407 0.933367,10.73438 0.644531,0.64613 1.171875,2.5947 1.171875,4.33016 0,1.73546 0.499988,4.07687 1.111078,5.20313 0.611091,1.12625 1.390097,3.5243 1.731122,5.32899 0.529969,2.80461 0.729131,3.00889 1.371075,1.40625 0.413072,-1.03125 1.268975,-3.17171 1.901995,-4.75658 1.42364,-3.56435 12.51772,-9.63399 22.83459,-12.49294 6.34594,-1.75855 7.34208,-1.80315 13.12118,-0.58748 8.51604,1.79141 11.17579,2.99068 16.68773,7.5245 3.34426,2.75079 16.60551,15.66827 18.04594,17.57812 2.16179,2.8663 -0.45501,1.77085 -4.71959,-1.97573 -3.54642,-3.11563 -10.95438,-7.63364 -12.51652,-7.63364 -1.47518,0 0.0698,2.57455 5.20877,8.67953 3.14318,3.73408 6.56579,8.47672 7.6058,10.53922 1.04001,2.0625 2.73127,4.66799 3.75835,5.78997 1.0847,1.18494 1.56833,2.52391 1.15385,3.19456 -0.50825,0.82238 -0.14551,1.00603 1.26071,0.63829 1.29364,-0.33829 3.67317,0.57825 6.90213,2.65855 2.71032,1.74617 6.42302,3.4324 8.25045,3.74718 1.82743,0.31479 5.15346,1.16922 7.39119,1.89875 4.82235,1.57212 5.74989,1.59389 15.9985,0.37536 7.60477,-0.90418 10.1757,-1.72913 7.91716,-2.54042 -0.59302,-0.21302 -3.00309,-1.88696 -5.3557,-3.71987 -5.80844,-4.5253 -11.5779,-16.26112 -7.99417,-16.26112 2.17291,0 11.88592,5.8436 12.96318,7.79899 2.257,4.09679 9.51071,7.61457 24.43368,11.84943 3.86719,1.09743 8.29688,2.42693 9.84375,2.95443 1.54687,0.52751 4.79311,1.49607 7.21385,2.15236 2.42074,0.6563 5.89449,2.33214 7.71944,3.72409 4.61438,3.51956 10.0885,5.26436 18.58233,5.92284 4.78771,0.37117 7.26563,0.95364 7.26563,1.70789 0,1.1596 -1.80797,1.64226 -13.57311,3.62353 l -6.54186,1.10165 4.75551,2.04577 c 6.33681,2.72602 13.21747,4.20164 16.36663,3.50997 1.41904,-0.31167 2.83826,-0.12 3.17766,0.42916 0.98625,1.59579 3.84437,1.15673 8.46581,-1.30052 2.3718,-1.2611 6.1416,-2.56721 8.37734,-2.90248 2.90807,-0.4361 4.60125,-1.33494 5.94929,-3.15826 3.954,-5.34806 17.65425,-5.98421 16.91586,-0.78547 -0.26991,1.90042 -0.74382,2.07953 -4.81531,1.81994 -4.18314,-0.2667 -11.97217,1.77791 -14.1872,3.72413 -0.48984,0.43041 -1.79744,0.78255 -2.9058,0.78255 -1.10834,0 -3.87162,1.25795 -6.14062,2.79544 -2.58271,1.75007 -5.3525,2.80719 -7.4067,2.82686 -4.87899,0.0467 -6.55864,1.49388 -2.59656,2.23717 3.06207,0.57445 28.7049,3.31729 31.65906,3.38636 1.25,0.0292 1.25,0.13886 0,0.98673 -0.86528,0.5869 -5.55374,0.75866 -12.1875,0.44647 -11.71006,-0.55108 -11.67543,0.19813 0.13332,2.88398 3.53605,0.80425 6.42918,1.89822 6.42918,2.43104 0,0.54762 -1.12077,0.76112 -2.57813,0.49114 -10.91263,-2.02165 -18.25327,-3.62959 -22.18582,-4.85972 -4.62476,-1.44666 -6.38314,-1.27256 -4.65013,0.46045 1.46342,1.46342 11.26799,4.66408 14.28746,4.66408 1.503,0 6.89244,0.87214 11.97654,1.93808 10.0824,2.1139 19.5347,1.8879 25.51302,-0.61 1.7482,-0.73044 3.97077,-1.32808 4.93905,-1.32808 0.96829,0 1.76051,-0.63281 1.76051,-1.40625 0,-0.77344 0.35733,-1.40625 0.79405,-1.40625 0.43673,0 1.76691,-0.84375 2.95595,-1.875 3.62465,-3.14364 6.6409,-1.56567 3.51562,1.83922 -0.64453,0.7022 0.18646,0.34506 1.84665,-0.79365 3.90034,-2.6752 4.30968,-3.42647 3.09926,-5.68817 -0.5501,-1.02787 -1.63164,-6.3672 -2.40341,-11.86519 -0.77178,-5.49799 -2.00388,-11.31025 -2.738,-12.91615 -0.73412,-1.60589 -1.88203,-7.13856 -2.55092,-12.29481 -0.73981,-5.703 -1.33769,-8.15209 -1.52645,-6.25277 -0.22372,2.25119 -0.68447,2.97864 -1.65152,2.60755 -0.81358,-0.3122 -1.34123,0.0665 -1.34123,0.96244 0,0.92336 0.52363,1.2762 1.3967,0.94118 2.30056,-0.88282 2.76794,3.66844 1.58972,15.48038 -1.19194,11.94936 -2.54297,17.08938 -3.91035,14.87694 -0.44895,-0.72643 -0.67697,-2.42145 -0.50671,-3.76672 0.2955,-2.33488 -0.69363,-18.90371 -1.90319,-31.88025 -0.3124,-3.35156 -1.55411,-11.35376 -2.75936,-17.78266 -1.55928,-8.31741 -1.92145,-12.19323 -1.25561,-13.43737 0.6966,-1.3016 0.53379,-2.1926 -0.63707,-3.48638 -0.86504,-0.95587 -1.31324,-2.15793 -0.99599,-2.67126 0.31725,-0.51331 -0.48517,-3.25505 -1.78316,-6.09274 -1.29799,-2.83769 -2.35998,-5.37288 -2.35998,-5.63375 0,-1.17916 -7.94167,-17.06425 -8.83822,-17.67836 -0.55304,-0.37883 -2.16569,-0.69523 -3.58366,-0.70313 -1.95416,-0.0109 -2.57812,-0.47122 -2.57812,-1.90207 0,-1.03825 -0.41826,-2.62028 -0.92947,-3.51563 -0.5112,-0.89535 -2.45298,-5.84665 -4.31507,-11.0029 -1.86209,-5.15625 -6.45646,-15.70313 -10.20972,-23.4375 C 303.84213,147.33243 300,136.76179 300,131.31275 c 0,-4.54603 2.75992,-15.06275 3.95294,-15.06275 0.45817,0 0.7054,2.73996 0.54942,6.08878 -0.15599,3.34884 -0.60002,6.09102 -0.98674,6.09375 -0.38671,0.003 -0.69029,1.37606 -0.67461,3.05184 0.0236,2.52381 0.19255,2.76523 0.98408,1.40625 1.48381,-2.54755 3.67491,-2.02223 3.67491,0.88107 0,3.45694 1.89022,13.52144 2.91341,15.51246 0.46013,0.89535 0.85062,2.16098 0.86778,2.8125 0.0172,0.65153 0.89034,2.21691 1.94042,3.47863 1.59511,1.91659 2.19719,2.1142 3.65936,1.20106 1.53063,-0.9559 1.79338,-0.7733 2.09508,1.45597 0.31901,2.35729 0.50599,2.19649 2.48675,-2.13856 1.17798,-2.57813 2.69009,-7.21875 3.36023,-10.3125 0.67014,-3.09375 1.53076,-6.89063 1.91249,-8.4375 1.4236,-5.7688 -1.10435,-0.74652 -3.77509,7.5 -3.189,9.84677 -4.23561,8.14575 -1.88085,-3.05687 0.83882,-3.9906 1.77667,-10.97358 2.08411,-15.51774 0.56124,-8.29534 2.10603,-9.64971 2.13446,-1.87135 0.007,2.16098 0.50356,4.2314 1.10148,4.60093 0.81158,0.5016 0.94371,-1.86049 0.5213,-9.31967 -0.53896,-9.51726 -0.47787,-9.99155 1.28684,-9.99155 1.06084,0 2.19225,-0.90154 2.64723,-2.10937 0.71766,-1.90517 0.89975,-1.72366 1.88092,1.875 0.59749,2.1914 1.3094,3.98437 1.58203,3.98437 1.25243,0 -1.0448,-21.066561 -2.91358,-26.71875 -0.61994,-1.875 -0.61994,-1.875 0.91847,0 0.84613,1.03125 2.02275,3.667969 2.61473,5.859375 1.20784,4.471256 1.62876,4.757212 3.22952,2.193994 0.90536,-1.449721 0.74165,-2.742972 -0.86039,-6.796874 -2.79909,-7.082948 -7.88636,-17.630642 -10.10153,-20.943995 -3.21561,-4.809779 -2.08556,-4.500929 2.45817,0.671831 2.39297,2.724243 4.47376,5.100367 4.62399,5.280276 0.15022,0.179908 0.0228,-0.663842 -0.28314,-1.875 -0.63257,-2.50422 -7.25652,-12.645495 -8.57725,-13.131799 -0.47845,-0.176169 -1.86157,-2.429683 -3.07359,-5.007808 -2.00259,-4.259759 -2.67389,-4.847009 -7.35664,-6.435522 -2.83413,-0.961412 -7.89515,-1.884808 -11.24671,-2.051992 -3.35156,-0.167183 -6.41016,-0.329793 -6.79688,-0.361353 -0.38671,-0.03156 -0.70312,-0.690196 -0.70312,-1.463633 0,-4.19738 27.96426,1.976405 30.46875,6.726712 0.51562,0.977994 1.93589,2.817697 3.15616,4.088229 2.52179,2.625687 11.37509,15.875023 11.37509,17.023308 0,1.603132 -1.0018,0.557933 -4.73657,-4.941751 -2.12791,-3.133489 -4.02922,-5.536955 -4.22514,-5.341036 -0.19592,0.195919 0.89461,3.577494 2.4234,7.514613 2.806,7.226367 4.42172,15.050023 5.32591,25.7893 0.44374,5.270438 0.31745,5.859563 -1.25651,5.861259 -1.61416,0.0019 -1.74984,0.905366 -1.74984,11.653796 0,6.40855 0.29498,11.12405 0.65553,10.4789 2.21653,-3.96625 5.33495,-24.506671 5.39705,-35.549283 0.0261,-4.632287 0.38548,-7.108163 0.97867,-6.741547 0.51563,0.318674 0.94396,2.13654 0.95185,4.039703 0.007,1.903164 0.37398,4.027727 0.81352,4.721254 1.05416,1.663333 1.68657,-0.938946 2.53415,-10.427631 0.35822,-4.010421 0.95793,-7.481171 1.33268,-7.712777 1.02559,-0.633846 1.87309,7.190145 1.22964,11.351838 -0.31272,2.022652 -0.2051,3.317334 0.24118,2.90128 1.36216,-1.26993 2.09938,-12.14453 1.10916,-16.361275 -0.61316,-2.611104 -0.6187,-4.391017 -0.016,-5.15625 0.50618,-0.642753 1.19749,-2.328798 1.53622,-3.746767 0.33873,-1.417969 1.00387,-2.578125 1.47808,-2.578125 1.44903,0 2.16713,8.00357 1.73381,19.324204 -0.39655,10.360003 0.182,12.206253 1.50929,4.816421 0.34729,-1.933594 0.94872,-3.515625 1.33652,-3.515625 1.23196,0 0.031,12.276848 -2.29265,23.4375 -2.37221,11.39375 -7.40746,23.33833 -14.06893,33.37426 -1.877,2.82782 -3.21303,5.34118 -2.96896,5.58525 0.5155,0.51549 6.33731,-8.05398 10.54512,-15.52201 3.95502,-7.01935 5.54517,-11.57727 8.89203,-25.487634 2.24102,-9.314214 2.87547,-14.104332 2.92522,-22.085456 0.0745,-11.94975 1.26209,-15.439355 2.21767,-6.516278 1.76779,16.507342 -3.33366,43.261708 -11.21444,58.813668 -2.54383,5.02002 -2.69344,7.25205 -0.23454,3.49929 6.69483,-10.2176 14.978,-40.371349 14.70496,-53.531362 -0.066,-3.182288 -0.0934,-10.953947 -0.0607,-17.270353 0.0502,-9.700264 0.2841,-11.484375 1.50602,-11.484375 2.0556,0 1.79464,-1.638202 -0.37043,-2.325367 -1.02432,-0.325107 -2.30214,-2.090973 -2.92891,-4.04755 -2.76602,-8.63453 -5.45121,-12.876687 -10.88009,-17.18862 C 339.09856,13.000512 326.97908,7.648755 308.11985,5.1489427 300.38603,4.1238155 279.85044,6.4333855 270.9375,9.3307214 c -4.38281,1.4247226 -9.86719,3.1161476 -12.1875,3.7587216 -2.32031,0.642575 -5.18782,1.546259 -6.37223,2.008187 -3.23773,1.262725 -4.36226,1.071697 -3.04372,-0.517044 0.61938,-0.746303 2.99135,-2.069243 5.27105,-2.939866 2.2797,-0.870624 4.1449,-1.9684913 4.1449,-2.4397042 0,-1.409859 -36.32019,-0.1162447 -41.39317,1.4742972 -6.978,2.187833 -17.00919,7.770996 -20.52177,11.42202 -1.78272,1.852984 -4.01951,3.792519 -4.97065,4.310078 -1.50262,0.817643 -1.64313,0.669406 -1.07181,-1.130673 l 0.65753,-2.071688 -3.86969,2.174889 c -7.51827,4.225496 -16.39587,15.773527 -16.19679,21.068861 0.11097,2.95211 -0.33566,3.549132 -4.77123,6.377686 -11.10865,7.083971 -18.35377,12.386742 -27.98184,20.480168 -3.34728,2.813756 -12.86059,6.838338 -13.84277,5.856155 -1.14351,-1.143511 1.77777,-3.813525 6.09316,-5.569059 4.6618,-1.896457 13.48081,-8.148533 20.73871,-14.702322 2.17989,-1.968411 4.81539,-3.578928 5.85668,-3.578928 2.88633,0 8.91449,-6.004843 10.32812,-10.288194 0.68997,-2.090629 1.81778,-4.268637 2.50625,-4.840017 0.68847,-0.57138 1.25177,-1.555213 1.25177,-2.186296 0,-1.813352 2.89684,-7.144649 5.05702,-9.306886 2.43083,-2.433122 21.83982,-14.10624 28.22423,-16.974849 9.56387,-4.2971862 20.61739,-6.3899899 34.80798,-6.5903268 7.28502,-0.1028468 13.72014,-0.4803479 14.30028,-0.8388913 0.58013,-0.3585434 7.69779,-1.0821019 15.81701,-1.6079079 8.11923,-0.5258059 16.44973,-1.144425 18.51223,-1.374709 2.0625,-0.2302842 9.86719,-0.56241519 17.34375,-0.73806909 11.25286,-0.26437398 14.58341,-0.0172424 19.3408,1.43511399 3.16088,0.9649665 6.26139,2.3742211 6.89003,3.1316768 0.62863,0.7574556 3.31589,2.3825459 5.97169,3.6113116 2.6558,1.2287662 7.03725,3.8772217 9.73655,5.8854567 2.69931,2.008235 7.28737,5.338837 10.1957,7.401337 6.87816,4.877789 11.204,10.229947 13.37992,16.554376 0.96474,2.804075 2.69233,6.937434 3.83908,9.185244 3.15807,6.190344 4.48195,11.664518 5.60057,23.158173 1.20658,12.397239 3.80231,25.10076 6.55105,32.060827 1.99372,5.0483 2.0959,8.52468 0.51843,17.63694 -0.57144,3.30087 -0.35453,4.24765 1.39609,6.09375 6.43148,6.78225 4.21058,17.49112 -5.10028,24.59286 -2.7794,2.11994 -3.2585,3.11337 -3.77288,7.82307 -0.32407,2.96711 -1.62028,10.9179 -2.88048,17.66841 -3.04203,16.29526 -3.08772,15.73745 1.22435,14.94602 1.9336,-0.35488 5.48312,-1.899 7.88785,-3.43139 5.76452,-3.67338 9.84388,-4.2655 15.22602,-2.21004 4.9276,1.88186 7.12051,5.24169 7.12051,10.90955 0,4.50366 -1.45853,4.71364 -2.2812,0.3284 -0.33818,-1.80265 -1.54529,-4.35598 -2.68246,-5.67407 -3.73044,-4.32393 -12.57596,-4.6347 -16.89446,-0.59354 -1.12647,1.05413 -4.34046,2.6838 -7.1422,3.6215 -6.09182,2.03886 -7.81152,4.53216 -2.42955,3.5225 2.20466,-0.4136 4.27214,-0.2105 5.71434,0.56134 1.8943,1.0138 2.52665,0.98019 3.90954,-0.20778 2.63013,-2.2594 3.82372,-2.73554 4.42372,-1.76472 0.93766,1.51716 -3.37156,3.15613 -9.16017,3.48397 -3.01551,0.17078 -5.91586,0.5782 -6.44524,0.90537 -1.65957,1.02568 1.3272,2.20587 5.62114,2.22114 2.45128,0.008 3.81187,0.38297 3.46029,0.95185 -0.31867,0.51562 -1.37079,0.9375 -2.33805,0.9375 -0.96725,0 -2.93197,0.4461 -4.36603,0.99133 -3.92304,1.49154 -0.93875,2.93314 4.5947,2.21951 2.54848,-0.32866 4.45313,-0.19915 4.45313,0.30279 0,1.0678 -6.31457,3.04887 -9.71814,3.04887 -1.35815,0 -2.46936,0.42187 -2.46936,0.9375 0,1.34119 5.30872,1.15673 11.27881,-0.39188 2.81871,-0.73117 5.27183,-1.18247 5.4514,-1.0029 0.8821,0.88208 -7.54688,4.09631 -12.29927,4.69008 -2.96627,0.37062 -5.62348,1.04641 -5.90491,1.50177 -0.80683,1.30547 10.02253,0.965 15.13194,-0.47573 8.66649,-2.44376 9.3238,-2.52633 7.77397,-0.9765 -0.75592,0.75593 -4.09439,2.05358 -7.4188,2.88368 -6.80347,1.6988 -8.50108,2.6988 -7.77843,4.58202 0.31861,0.83028 -0.37753,1.51826 -1.93072,1.90809 -1.33595,0.3353 -2.42899,0.98577 -2.42899,1.4455 0,1.27036 4.78463,1.0004 9.92913,-0.56024 2.53116,-0.76785 5.23493,-1.38201 6.00837,-1.36481 2.25137,0.0501 -4.79066,3.37356 -8.90625,4.20328 -2.0625,0.41581 -4.06641,0.84146 -4.45312,0.94589 -0.38672,0.10443 -1.42032,0.24261 -2.29688,0.30706 -1.22117,0.0898 -1.33611,0.37483 -0.49167,1.21927 0.84444,0.84444 2.81097,0.73487 8.41205,-0.46875 8.43804,-1.81324 8.67337,-1.83449 8.67337,-0.78306 0,0.43327 -2.42578,1.30143 -5.39062,1.92925 -11.91211,2.52241 -16.22869,4.9646 -11.06544,6.2605 1.54641,0.38812 2.336,1.1661 2.17598,2.14395 -0.20887,1.27633 0.5382,1.49349 4.43633,1.28958 7.16314,-0.37469 10.77755,-1.83191 10.60436,-4.27532 -0.38381,-5.41535 8.43672,-25.81061 10.58764,-24.48126 0.47841,0.29567 0.72646,0.82484 0.55123,1.17594 -0.17524,0.35108 -1.97509,4.01334 -3.99966,8.13834 l -3.68107,7.5 -0.30105,13.20738 -0.30104,13.20738 -7.19896,1.09569 c -3.95942,0.60262 -9.17796,1.0929 -11.59674,1.0895 -4.6631,-0.007 -6.73485,1.33337 -3.59998,2.32833 1.78355,0.56609 11.92853,0.006 18.62616,-1.02926 2.91858,-0.4509 3.08283,-0.33798 2.44916,1.68384 -0.37357,1.19192 -1.51437,3.22183 -2.53509,4.51089 l -1.85587,2.34375 0.63431,-2.96146 0.63431,-2.96147 -9.66511,0.45813 c -10.32789,0.48954 -12.00885,0.76027 -12.00885,1.93401 0,0.41073 3.69141,0.80898 8.20312,0.885 11.44264,0.19278 11.07869,0.14523 9.92702,1.2969 -0.54717,0.54717 -5.37764,1.30736 -10.73437,1.68932 l -9.73952,0.69448 8.4375,0.83167 c 9.86761,0.97264 7.66297,2.04016 -4.6875,2.26975 -4.92034,0.0915 -7.00663,0.42841 -6.06559,0.97961 1.78612,1.04618 18.88352,1.56795 20.41257,0.62294 0.72803,-0.44995 1.12177,-0.0344 1.12177,1.18388 0,1.98395 -3.50984,5.05508 -4.83863,4.23383 -0.4307,-0.26618 -1.72144,0.17329 -2.86832,0.9766 -2.0637,1.44547 -2.0516,1.4617 1.17022,1.57148 l 3.25548,0.11092 -2.8125,0.71566 c -1.54688,0.39361 -5.44922,0.76557 -8.67188,0.82658 -3.22265,0.061 -5.85953,0.42733 -5.85972,0.81404 -3.3e-4,0.67859 14.70065,0.4805 30.70347,-0.41371 5.16384,-0.28855 7.73438,-0.0969 7.73438,0.5767 0,0.55489 -1.37109,1.05024 -3.04688,1.10079 -1.67578,0.0505 -10.42535,0.5779 -19.44349,1.17188 -14.84307,0.97764 -16.42854,1.24725 -16.73343,2.84552 -0.29097,1.5253 0.0266,1.66391 2.33412,1.01865 1.46902,-0.4108 6.67874,-0.84938 11.57718,-0.97463 4.89844,-0.12525 15.86719,-0.5105 24.375,-0.8561 9.869,-0.40091 15.00842,-0.30551 14.19714,0.26354 -0.69938,0.49056 -5.34001,0.96766 -10.3125,1.06024 -4.97249,0.0925 -15.57995,0.77322 -23.57214,1.51255 -7.99219,0.73933 -15.26953,1.34924 -16.17188,1.35534 -0.90234,0.007 -1.64062,0.68351 -1.64062,1.50533 0,1.23129 0.78363,1.40182 4.45312,0.96912 9.20218,-1.08512 28.93328,-1.57187 31.64063,-0.78055 3.15296,0.92158 -1.9279,1.49156 -23.67188,2.65555 -10.58329,0.56654 -11.48437,0.75934 -11.48437,2.45727 0,1.17697 0.465,1.66406 1.28736,1.34849 0.70804,-0.27171 6.19242,-0.79606 12.1875,-1.16525 7.90531,-0.4868 10.90014,-0.37863 10.90014,0.39371 0,0.66637 -2.0175,1.08132 -5.39063,1.1087 -7.46573,0.0607 -17.33589,2.0338 -17.84565,3.5676 -0.34473,1.03726 1.25982,1.14699 8.82937,0.6038 5.08786,-0.36511 11.1491,-0.95873 13.46941,-1.31916 2.32031,-0.36043 5.90625,-0.57363 7.96875,-0.47376 2.0625,0.0999 4.72412,0.22852 5.91471,0.28592 1.19058,0.0574 1.94476,0.46021 1.67595,0.89515 -0.26881,0.43495 -6.93824,1.06802 -14.82096,1.40682 -18.07985,0.77708 -22.30095,1.38114 -22.30095,3.19135 0,1.02159 0.68618,1.25165 2.57812,0.86439 1.41797,-0.29023 15.98632,-1.04295 32.3741,-1.67269 23.46107,-0.90155 30.03868,-0.90158 30.9375,-1.7e-4 0.89833,0.90091 0.34259,1.11758 -2.60847,1.01701 -3.89907,-0.13288 -20.06988,0.54566 -37.03125,1.55388 -20.68169,1.22934 -24.375,1.8014 -24.375,3.77543 0,0.8894 0.58861,1.20486 1.64062,0.87928 3.73053,-1.15454 35.24596,-2.48203 36.20306,-1.52493 0.66676,0.66676 -0.0396,0.97171 -2.26556,0.97809 -1.7789,0.005 -9.35156,0.49705 -16.82812,1.09322 -7.47656,0.59618 -14.76914,1.07366 -16.20572,1.06107 -1.50356,-0.0131 -2.46445,0.41804 -2.26433,1.01615 0.3694,1.10408 16.09693,1.30725 40.5013,0.52321 12.86179,-0.41321 17.34375,0.12773 17.34375,2.09328 0,0.65985 -1.76967,0.73047 -5.39063,0.21512 -2.96484,-0.42198 -8.76562,-0.63352 -12.89062,-0.47009 -4.125,0.16344 -14.67188,0.56555 -23.4375,0.89359 -9.84577,0.36846 -15.85458,0.95477 -15.72056,1.53393 0.30771,1.32978 12.12793,1.98049 23.19081,1.27667 5.17261,-0.32908 9.77205,-0.25709 10.22098,0.15997 1.09815,1.02024 -4.77292,1.75646 -20.50373,2.57113 -7.96725,0.41262 -13.02772,1.04814 -12.87744,1.61723 0.15805,0.59856 5.92003,0.78971 15.9375,0.52871 23.18081,-0.60395 30.67071,-0.43304 32.65708,0.74521 1.40663,0.83439 0.003,1.03483 -6.65464,0.94991 -7.42209,-0.0947 -19.01827,0.68196 -39.84375,2.66847 -6.06872,0.57888 -6.07835,0.58441 -2.34375,1.34463 2.0625,0.41985 6.98582,0.51847 10.94071,0.21915 3.95489,-0.29932 8.59552,-0.23545 10.3125,0.14193 3.10806,0.68313 3.11148,0.68996 0.7785,1.55351 -1.28881,0.47705 -8.03881,0.89855 -15,0.93666 -6.96119,0.0382 -13.49548,0.37567 -14.52066,0.75011 -3.63277,1.32689 12.63792,2.04856 32.599,1.44589 13.32695,-0.40237 19.40756,-0.29271 18.428,0.33236 -0.80406,0.51309 -13.68206,1.30486 -28.61776,1.75949 -17.97389,0.54711 -27.78166,1.20436 -29.0068,1.94384 -1.45425,0.87776 1.71575,0.98476 14.78964,0.4992 C 384.10752,344.95115 390,345.06021 390,345.65831 c 0,0.8994 -18.62096,2.15419 -31.9679,2.15419 -3.68469,0 -6.63203,0.44186 -7.0083,1.05068 -0.47535,0.76913 4.22021,0.90479 17.5228,0.50625 15.26741,-0.45739 17.60133,-0.3576 14.60106,0.62436 -1.96409,0.64283 -3.93847,1.76322 -4.3875,2.48978 -0.52848,0.8551 -3.40203,1.53701 -8.14767,1.93348 l -7.33124,0.61248 5.625,0.29003 c 7.53483,0.38849 9.0062,0.1931 10.80515,-1.43494 0.8415,-0.76154 3.25961,-1.38462 5.37358,-1.38462 2.11398,0 4.43528,-0.59169 5.15846,-1.31486 1.92674,-1.92674 12.65679,-2.47181 11.48985,-0.58366 -0.31597,0.51124 -2.35133,0.66911 -4.61921,0.35825 -2.54994,-0.3495 -4.29469,-0.16683 -4.70204,0.49229 -0.43038,0.69635 0.4575,1.04798 2.64623,1.04798 4.029,0 13.73194,3.43407 19.87514,7.03423 5.50952,3.2288 3.92206,4.26879 -2.15536,1.41207 -2.3908,-1.12381 -7.1121,-2.89737 -10.49176,-3.94124 -10.25295,-3.16682 -24.80297,-0.92227 -29.22401,4.5082 -1.21396,1.49114 -1.1627,1.58191 0.53147,0.9412 C 376.88424,361.21003 384.48943,360 389.0203,360 c 7.1238,0 20.48444,4.58285 19.2384,6.59899 -0.32609,0.52762 -1.77974,0.25924 -3.54628,-0.65471 -7.39512,-3.82605 -13.91373,-4.36686 -27.01414,-2.24118 -7.70267,1.24983 -8.58826,1.2341 -7.74058,-0.13748 0.38135,-0.61702 -0.63569,-0.17551 -2.26007,0.98115 -3.69882,2.6338 -4.80123,4.26731 -2.42441,3.59241 5.02789,-1.42768 8.13832,-1.56725 14.03098,-0.62957 3.56238,0.56686 7.52312,1.71353 8.80165,2.54816 3.42062,2.23299 0.85213,2.61053 -5.54623,0.81524 -10.7166,-3.00692 -28.46112,-0.68489 -36.51079,4.77777 -1.75201,1.18894 -3.54849,2.16172 -3.99216,2.16172 -0.44367,0 -0.80667,0.36453 -0.80667,0.81007 0,0.44554 1.94844,1.07714 4.32987,1.40355 4.89237,0.67057 15.35763,5.06735 15.35763,6.45221 0,0.50038 -0.73828,0.6127 -1.64063,0.24961 -4.04426,-1.62735 -10.62866,-3.23556 -17.10937,-4.17886 -5.79953,-0.84416 -7.93451,-0.76851 -12.1875,0.43192 -26.86088,7.58162 -37.58214,7.76262 -50.56078,0.85356 -2.34743,-1.24963 -5.53704,-2.25803 -7.08801,-2.24087 l -2.81996,0.0312 2.34375,1.79548 c 1.28906,0.98751 3.1864,2.5555 4.21632,3.48444 1.02992,0.92892 2.87959,1.7735 4.1104,1.87684 1.23079,0.10334 5.11387,0.84204 8.62905,1.64156 3.51519,0.7995 9.68114,1.43275 13.70211,1.40719 4.02098,-0.0256 12.499,0.3195 18.84004,0.76677 16.12868,1.13767 40.29694,-1.51925 45.64924,-5.01842 1.03625,-0.67746 8.63409,-3.15513 16.88409,-5.50594 8.25,-2.3508 16.6875,-5.09485 18.75,-6.09788 9.947,-4.83741 13.93149,-5.76481 13.42296,-3.12419 -0.19271,1.00066 -2.59073,2.44702 -6.39687,3.85827 -12.01172,4.45373 -24.66624,8.57262 -28.00336,9.11475 -1.86875,0.30359 -6.70492,2.05862 -10.74705,3.90008 -4.10642,1.87075 -9.89785,3.67519 -13.125,4.08936 -3.17662,0.40768 -9.15068,1.22374 -13.27568,1.81349 -9.37923,1.3409 -30.63147,1.21583 -34.02173,-0.20024 -3.95059,-1.65012 -19.23708,-3.12521 -40.04077,-3.86381 -5.71275,-0.20282 -10.22571,-0.95763 -13.97489,-2.33734 -3.90204,-1.436 -7.66858,-2.03782 -12.75373,-2.03782 -8.21077,0 -10.41198,1.30124 -13.95745,8.25093 -1.06631,2.09013 -2.87632,4.09782 -4.02226,4.46152 -1.14594,0.36371 -4.47373,2.29282 -7.39508,4.28692 -2.92135,1.9941 -5.68849,3.62563 -6.1492,3.62563 -2.25058,0 -8.38486,4.31786 -13.31611,9.37308 l -5.48892,5.62692 -5.71273,0 c -3.142,0 -5.95128,-0.386 -6.24286,-0.85777 -0.29156,-0.47176 0.94638,-2.79208 2.75099,-5.15625 3.49955,-4.58466 3.34633,-5.3981 -0.45651,-2.42348 -1.28906,1.00832 -2.94245,1.84268 -3.67419,1.85415 -0.73175,0.0114 -3.47394,1.23013 -6.09375,2.70814 -4.95594,2.79596 -9.54913,4.09297 -11.56019,3.26433 z m 30.85332,-6.12404 c 2.75333,-2.15733 6.48549,-5.42686 8.29368,-7.26563 1.8082,-1.83876 6.44882,-5.40185 10.3125,-7.91798 3.86369,-2.51613 8.71238,-6.33129 10.77488,-8.47814 2.0625,-2.14684 5.64844,-5.497 7.96875,-7.4448 4.79947,-4.02894 5.25575,-3.19908 -5.22469,-9.50228 -3.42935,-2.0625 -8.61375,-5.77177 -11.52088,-8.2428 -4.57923,-3.89233 -5.72423,-4.43759 -8.56693,-4.07966 -6.25779,0.78793 -10.87495,2.41551 -17.84182,6.28938 -16.0321,8.91451 -18.38494,10.10161 -21.15923,10.67554 -3.91801,0.81055 -15.13908,6.84843 -19.55262,10.52097 -2.37527,1.97646 -3.38601,3.47204 -3.00953,4.45312 0.84315,2.19722 3.77949,1.80516 10.0007,-1.3353 3.06434,-1.54688 6.17353,-2.8125 6.90932,-2.8125 0.73578,0 3.74377,-1.26563 6.68443,-2.8125 2.94066,-1.54688 6.12266,-2.8125 7.07112,-2.8125 0.94846,0 1.9852,-0.42188 2.30388,-0.9375 0.779,-1.26045 4.46384,-1.20402 4.04187,0.0619 -0.4016,1.20482 -5.05181,3.79341 -11.91375,6.63194 -4.33618,1.79371 -5.84378,3.16372 -10.54687,9.58431 -3.01813,4.12031 -5.4875,8.47143 -5.4875,9.66917 0,1.19774 0.21141,2.17771 0.46979,2.17771 0.25839,0 2.07465,-1.65369 4.03614,-3.67489 1.9615,-2.02118 7.33994,-5.65205 11.95209,-8.06859 4.61215,-2.41654 9.67084,-5.17379 11.24152,-6.12723 3.62227,-2.19878 10.73796,-3.45041 10.73796,-1.88877 0,0.60784 -1.39239,1.68694 -3.09422,2.398 -3.51851,1.47013 -17.53078,15.68434 -17.53078,17.78343 0,0.75901 -0.91852,2.23574 -2.04115,3.28162 -2.10178,1.95811 -1.64074,3.97186 0.53962,2.35702 0.67158,-0.49739 2.89482,-2.02129 4.94055,-3.38645 2.04573,-1.36515 4.43888,-3.57999 5.3181,-4.92187 0.87924,-1.34187 2.05089,-2.43977 2.60368,-2.43977 0.55279,0 4.60807,-2.78114 9.01172,-6.18031 6.46421,-4.98971 8.36371,-6.02098 9.86019,-5.35324 1.7314,0.77258 1.60267,1.10261 -1.95349,5.00844 -3.84717,4.22544 -4.33575,5.00131 -7.29157,11.57908 -0.90153,2.00625 -2.40662,3.84842 -3.34465,4.09371 -1.71651,0.44888 -2.44285,3.03982 -0.85219,3.03982 0.46932,0 3.10604,-1.76509 5.85938,-3.92242 z M 152.34375,414.375 c 0.31868,-0.51563 -0.28924,-0.9375 -1.35092,-0.9375 -1.06168,0 -1.93033,0.42187 -1.93033,0.9375 0,0.51562 0.60791,0.9375 1.35092,0.9375 0.74301,0 1.61165,-0.42188 1.93033,-0.9375 z m -31.875,-10.3125 c -0.32007,-0.51788 -4.54099,-0.9375 -9.43033,-0.9375 -5.27561,0 -8.85092,0.3787 -8.85092,0.9375 0,0.56287 3.76844,0.9375 9.43033,0.9375 6.04815,0 9.22253,-0.33623 8.85092,-0.9375 z m 32.34375,-1.875 c 0,-0.51563 -1.07959,-0.9375 -2.39908,-0.9375 -1.36065,0 -2.14828,0.40579 -1.81967,0.9375 0.31868,0.51562 1.39826,0.9375 2.39908,0.9375 1.00082,0 1.81967,-0.42188 1.81967,-0.9375 z m -38.4375,-3.75 c 1.13715,-0.73488 1.0026,-0.91153 -0.70312,-0.92315 -1.16016,-0.008 -2.10938,0.40752 -2.10938,0.92315 0,1.17461 0.99491,1.17461 2.8125,0 z m 27.1875,0 c 0,-0.51563 -0.42188,-0.9375 -0.9375,-0.9375 -0.51563,0 -0.9375,0.42187 -0.9375,0.9375 0,0.51562 0.42187,0.9375 0.9375,0.9375 0.51562,0 0.9375,-0.42188 0.9375,-0.9375 z m -5.99617,-1.3866 c 3.81547,-1.59421 3.60457,-3.77095 -0.22431,-2.31521 -1.32226,0.50271 -3.29964,1.54128 -4.39417,2.30793 -1.71009,1.19778 -1.75863,1.39388 -0.34509,1.39388 0.90473,0 3.13834,-0.62397 4.96357,-1.3866 z m -30.82023,-1.05481 c -0.31153,-0.31152 -1.12013,-0.34482 -1.79688,-0.074 -0.74787,0.29927 -0.52573,0.52142 0.56641,0.5664 0.98827,0.0407 1.54199,-0.18087 1.23047,-0.49239 z m -18.870822,-1.05832 c -0.377971,-0.37797 -2.241253,-1.18203 -4.140625,-1.78681 -1.899371,-0.60479 -5.562778,-1.92767 -8.140903,-2.93976 -16.260561,-6.38338 -15.21314,-6.04913 -12.659512,-4.03983 1.287268,1.01289 5.29508,2.96474 8.90625,4.33747 3.611169,1.37272 7.831387,3.05845 9.378262,3.74605 3.004371,1.33549 7.801227,1.82759 6.656528,0.68288 z m 30.332342,-0.92141 c 2.34361,-0.32045 6.22083,-1.56617 8.61603,-2.76826 2.39519,-1.20208 4.62806,-2.1856 4.96191,-2.1856 3.03442,0 18.35085,-15.34272 18.33496,-18.36644 -0.005,-0.89124 -5.45322,4.75341 -7.74091,8.01954 -2.86917,4.09632 -18.75648,13.1594 -23.06804,13.1594 -2.36491,0 -8.56157,2.41286 -8.56157,3.33371 0,0.33929 0.7192,0.34091 1.59824,0.004 0.87903,-0.33731 3.51575,-0.87549 5.85938,-1.19594 z m -8.75988,-2.5413 c 10.47836,-1.4084 20.93909,-6.35122 29.1603,-13.7786 4.58118,-4.13881 7.27123,-7.9033 10.68811,-14.95705 1.47916,-3.05355 3.08011,-5.55191 3.55765,-5.55191 0.47755,0 1.79455,-1.49875 2.92668,-3.33056 2.47441,-4.00368 3.53794,-3.56606 1.75552,0.72238 -0.70338,1.69231 -1.15551,3.81521 -1.00475,4.71755 0.15539,0.93004 -0.31078,1.64063 -1.07628,1.64063 -0.74271,0 -1.84583,0.59697 -2.45137,1.32661 -0.91443,1.10182 -0.57648,1.30039 1.99458,1.17187 3.02348,-0.15113 3.15669,-0.34031 5.72012,-8.12348 5.88249,-17.86061 6.97988,-32.19621 3.80358,-49.6875 -0.66024,-3.63577 -4.69687,-10.00767 -9.46124,-14.93476 -1.71041,-1.7688 -3.34668,-4.15973 -3.63617,-5.31318 -0.92308,-3.67784 -13.15339,-13.23649 -22.86197,-17.86786 -8.18385,-3.90402 -11.67356,-4.53494 -24.59008,-4.44575 l -10.996331,0.0759 -7.753669,4.03851 c -4.264519,2.22118 -9.484619,5.45232 -11.600225,7.18031 -4.378213,3.57607 -5.072872,3.81189 -4.422105,1.50119 0.398274,-1.41416 8.084935,-8.4054 11.693656,-10.63571 0.664512,-0.41069 0.920407,-1.03451 0.568654,-1.38626 -1.018431,-1.01844 -10.068983,2.30985 -14.418232,5.30222 -2.186661,1.50443 -4.370185,2.73536 -4.852278,2.73536 -2.024657,0 -6.073695,4.32158 -10.801861,11.52894 -6.768905,10.31816 -9.706443,17.45079 -10.889101,26.43981 -0.542715,4.125 -1.426987,10.45312 -1.965051,14.0625 -1.008046,6.76205 -0.557213,18.60166 0.902071,23.68988 0.455504,1.58826 0.65027,3.06565 0.432814,3.28311 -0.683273,0.68327 2.209821,6.56258 5.994285,12.18152 4.874425,7.23725 18.478753,21.16088 21.389363,21.8914 3.181261,0.79844 3.984393,-0.30813 1.491114,-2.05448 -1.126181,-0.78881 -3.842916,-3.37996 -6.037188,-5.75813 -2.194273,-2.37815 -4.938805,-5.17413 -6.098961,-6.2133 C 53.449219,369.88709 52.5,368.04342 52.5,366.8292 c 0,-1.21422 -0.611175,-3.14204 -1.358167,-4.28406 -4.965415,-7.59122 -2.209669,-27.13424 5.248671,-37.22218 1.433059,-1.93832 1.792223,-3.14024 1.134826,-3.79763 -2.091636,-2.09164 -4.030942,0.38891 -6.502992,8.31793 -3.905066,12.52536 -4.955976,18.75863 -4.378218,25.96859 0.489044,6.10289 0.417393,6.44402 -1.090914,5.19393 -2.61938,-2.17095 -4.303206,-6.26395 -4.303206,-10.4601 0,-3.461 4.605365,-19.26752 8.108713,-27.83072 1.903046,-4.6516 2.669882,-13.05498 1.337779,-14.66007 -1.886715,-2.27335 -0.176993,-7.67105 3.895158,-12.29726 4.355854,-4.94851 5.640678,-4.90302 2.554543,0.0905 -1.72153,2.7855 -2.215716,5.22294 -2.57603,12.70557 -0.435337,9.04065 -0.3974,9.25884 1.609824,9.25884 1.131718,0 1.795246,-0.42138 1.476263,-0.9375 -0.318674,-0.51563 0.183773,-0.93772 1.116547,-0.93797 3.386758,-9.4e-4 12.07127,-3.92876 14.634096,-6.61867 1.444104,-1.51573 2.984464,-2.75586 3.423023,-2.75586 0.438558,0 1.668572,-1.47656 2.733364,-3.28125 1.807895,-3.06415 4.81172,-4.50218 4.81172,-2.30352 0,1.84063 -7.572485,11.01004 -9.511254,11.51704 -1.066603,0.27892 -1.747863,1.06052 -1.516775,1.74016 0.298192,0.87701 1.933974,1.14113 5.656314,0.91331 8.170869,-0.50008 20.848078,3.41568 21.851275,6.74946 0.33243,1.10471 2.45187,4.75074 4.70985,8.1023 3.73324,5.5413 4.24817,7.02223 5.67979,16.3352 1.92446,12.51903 1.2244,16.90039 -4.51798,28.2758 -4.68415,9.27913 -5.49393,9.72906 -18.814098,10.45389 -5.015521,0.27292 -8.889241,0.86819 -8.608268,1.32281 1.929299,3.12167 15.806299,6.74833 22.414896,5.85799 1.03125,-0.13894 3.6093,-0.48572 5.72899,-0.77063 z M 87.35878,388.2507 c -0.753038,-0.47751 1.807895,-1.03412 6.562501,-1.42636 11.867079,-0.97898 13.930299,-1.80022 17.088479,-6.80182 6.75143,-10.69225 10.17712,-23.3091 10.08193,-37.1319 -0.031,-4.51171 0.28852,-8.20312 0.71019,-8.20312 0.42167,0 1.26466,2.53125 1.87333,5.625 0.60865,3.09375 1.36082,5.625 1.67146,5.625 0.31065,0 0.32679,-4.74609 0.0359,-10.54688 -0.52452,-10.45873 -0.51838,-10.49986 0.73407,-4.92187 1.62629,7.24292 1.72888,15.90842 0.20729,17.51116 -0.69979,0.73714 -1.19912,3.89653 -1.23295,7.80134 -0.0799,9.21744 -2.6844,16.82998 -7.28611,21.29579 -4.06515,3.9451 -4.04229,5.71668 0.0393,3.04234 4.73214,-3.10061 12.35005,-11.90064 15.72066,-18.16011 1.82971,-3.39791 4.60783,-8.2874 6.1736,-10.86552 11.31325,-18.62797 12.96942,-30.79279 6.03667,-44.34041 -1.92525,-3.76223 -3.27566,-7.06521 -3.00091,-7.33995 0.81008,-0.81008 10.72273,11.73735 12.85302,16.26933 1.07719,2.29162 2.20547,6.81111 2.5073,10.04334 0.47949,5.13465 0.10953,7.195 -2.92972,16.316 -1.91318,5.74158 -3.88381,10.68974 -4.37919,10.9959 -0.8441,0.52168 -0.45041,-2.68502 0.75663,-6.16296 2.51214,-7.23839 4.10073,-23.4375 2.29843,-23.4375 -0.4438,0 -1.05292,2.07716 -1.3536,4.61592 -0.30067,2.53875 -0.97823,5.38641 -1.50568,6.32813 -1.4788,2.64019 -6.64636,14.21555 -6.64636,14.88776 0,0.32862 -0.7884,1.71731 -1.752,3.08597 -0.96361,1.36865 -2.07403,3.54316 -2.46761,4.83222 -1.33346,4.36733 -8.85744,14.99982 -14.57005,20.58961 -6.11466,5.9832 -12.05901,8.8621 -21.52284,10.42371 -6.431053,1.06117 -15.068189,1.08696 -16.70372,0.0499 z m 47.09016,-49.57883 c 0.0639,-5.64077 -0.3087,-7.84218 -1.66614,-9.84375 -0.96165,-1.41796 -1.3178,-2.57812 -0.79147,-2.57812 0.52634,0 2.31321,2.00391 3.97083,4.45312 2.65246,3.91916 2.93518,4.11701 2.35777,1.65002 -0.36085,-1.54171 -1.04459,-3.04322 -1.51942,-3.33668 -1.42677,-0.88178 -7.42171,-11.31105 -8.00493,-13.92598 l -0.54293,-2.43423 2.38086,2.8125 c 1.30947,1.54687 4.12564,5.97656 6.25815,9.84375 3.40483,6.17445 3.81082,7.53698 3.33177,11.18149 -0.30004,2.28262 -1.17618,4.84709 -1.94698,5.69882 -0.77079,0.85171 -1.40145,2.04271 -1.40145,2.64663 0,0.60393 -0.56438,1.09806 -1.25419,1.09806 -0.94644,0 -1.23399,-1.78279 -1.17187,-7.26563 z M 122.3744,318.84655 c -0.62495,-1.96901 -1.46689,-2.30445 -8.46815,-3.37377 -5.42169,-0.82807 -7.03125,-1.40789 -7.03125,-2.53288 0,-0.63048 1.59532,-0.81643 4.34518,-0.50648 2.6687,0.3008 3.84426,0.17252 3.04688,-0.33247 -0.71407,-0.45223 -3.09128,-0.8287 -5.28268,-0.8366 -4.38114,-0.0157 -5.35832,-1.50879 -1.60422,-2.45101 1.67125,-0.41945 4.1843,0.29079 8.4375,2.38464 3.33154,1.64011 6.05734,3.34731 6.05734,3.7938 0,0.44648 0.69007,1.50185 1.53348,2.34528 1.05821,1.0582 1.23235,1.83461 0.56188,2.50508 -0.67047,0.67047 -1.16512,0.3619 -1.59596,-0.99559 z m -74.5619,-1.5028 c 0,-0.77344 0.421875,-1.40625 0.9375,-1.40625 0.515625,0 0.9375,0.63281 0.9375,1.40625 0,0.77344 -0.421875,1.40625 -0.9375,1.40625 -0.515625,0 -0.9375,-0.63281 -0.9375,-1.40625 z m 75.54652,-9.98712 c -3.1863,-4.73137 -4.39522,-8.10769 -2.47899,-6.9234 1.33152,0.82293 6.89283,10.85641 6.32961,11.41963 -0.27039,0.27038 -2.00317,-1.75292 -3.85062,-4.49623 z m -79.282164,-7.98156 c 0.02356,-1.28251 1.080054,-2.38752 7.917635,-8.28132 3.589157,-3.09375 8.00365,-7.25261 9.809984,-9.24192 1.806332,-1.98931 3.430529,-3.17807 3.609323,-2.64168 0.750846,2.25253 -3.044026,6.96044 -9.722364,12.06153 -3.922212,2.99589 -8.143264,6.22054 -9.380115,7.16589 -1.236851,0.94535 -2.242359,1.36722 -2.234463,0.9375 z m 103.579394,-1.74586 c -2.0625,-0.74303 -4.48828,-1.35733 -5.39063,-1.36509 -0.90234,-0.007 -1.64062,-0.56417 -1.64062,-1.23646 0,-1.54577 -4.87723,-6.08225 -10.14952,-9.44044 -2.23068,-1.42083 -8.93192,-4.2647 -14.89165,-6.31969 -9.26738,-3.19553 -12.10672,-3.7635 -19.615705,-3.92382 -8.727517,-0.18634 -11.163756,-1.40232 -5.237815,-2.61431 1.61363,-0.33002 4.486662,-1.33688 6.384509,-2.23747 2.589553,-1.22882 4.619111,-1.48243 8.133121,-1.01627 5.28854,0.70155 17.28661,6.17522 25.20064,11.49686 15.84016,10.65141 18.56846,12.71759 18.00243,13.63344 -0.33949,0.5493 -0.17614,0.72458 0.36409,0.39069 0.5389,-0.33305 1.66849,0.44552 2.51022,1.73015 1.75477,2.67813 1.46067,2.75047 -3.66907,0.90241 z M 106.875,272.8125 c 0,-0.51563 -0.94922,-0.93104 -2.10937,-0.92315 -1.70573,0.0116 -1.84028,0.18827 -0.70313,0.92315 1.81759,1.17461 2.8125,1.17461 2.8125,0 z m -21.5625,24.8628 c 0,-1.07063 7.422577,-4.05102 11.71875,-4.70542 9.86863,-1.50323 21.08955,0.41135 22.39822,3.82171 0.64917,1.69169 -0.31305,1.674 -6.48122,-0.11913 -4.51219,-1.31173 -6.00621,-1.31173 -15.4109,0 -11.441742,1.59584 -12.22485,1.66008 -12.22485,1.00284 z m 189.375,89.63574 c 0,-1.06709 -10.06331,-3.87354 -13.88963,-3.87354 -5.42016,0 -3.10725,1.65703 4.28025,3.06647 9.20452,1.7561 9.60938,1.79011 9.60938,0.80707 z m 30,-1.06104 c 0,-0.51563 -0.82813,-0.9375 -1.84029,-0.9375 -1.01217,0 -3.98091,-0.84375 -6.59721,-1.875 -4.96277,-1.95614 -12.1875,-2.53177 -12.1875,-0.97104 0,1.35647 11.08793,4.53323 16.17187,4.63335 2.44922,0.0482 4.45313,-0.33419 4.45313,-0.84981 z M 48.764765,385.08424 c 4.258041,-1.32893 4.373934,-1.58776 2.015193,-4.50068 l -1.72004,-2.12417 -2.96746,2.64403 c -2.905508,2.58882 -3.907025,5.14658 -2.015193,5.14658 0.523745,0 2.63312,-0.5246 4.6875,-1.16576 z M 318.1504,383.77882 c 4.97099,-0.68135 5.86957,-2.21371 1.30272,-2.22155 -1.67578,-0.003 -4.70066,-0.46439 -6.72196,-1.0256 -3.70093,-1.02754 -14.39215,-0.32 -13.2033,0.87378 0.68012,0.68294 9.1189,2.63238 12.29442,2.84012 1.08818,0.0711 3.93584,-0.13885 6.32812,-0.46675 z M 86.25,381.61783 c 0,-1.10612 -1.828457,-2.28937 -2.5,-1.61783 -0.671543,0.67155 0.51171,2.5 1.617828,2.5 0.485195,0 0.882172,-0.39698 0.882172,-0.88217 z m 63.99977,-5.16173 c 3.78331,-6.4393 2.72509,-7.18598 -1.43338,-1.01141 -3.77963,5.61206 -4.12757,6.48195 -2.35655,5.89161 0.63104,-0.21035 2.3365,-2.40643 3.78993,-4.8802 z m 110.044,4.1689 c 3.19233,0 2.71091,-1.28707 -1.17447,-3.13987 -2.18273,-1.04087 -3.76072,-1.2996 -4.45313,-0.73012 -0.58983,0.48511 -3.07633,1.18034 -5.52555,1.54495 -4.37644,0.65152 -5.59438,1.65309 -3.28125,2.69833 0.64454,0.29125 3.65955,0.3264 6.70003,0.0781 3.04048,-0.24828 6.52095,-0.45142 7.73437,-0.45142 z M 77.226956,377.29707 c -0.943261,-1.43959 -1.835652,-2.06473 -2.046116,-1.43334 -0.381783,1.14535 2.614468,5.09096 3.325822,4.3796 0.216236,-0.21623 -0.359632,-1.54204 -1.279706,-2.94626 z m 192.304294,1.85808 c 0,-1.4135 -18.32739,-18.3791 -26.49437,-24.52574 -7.36349,-5.54193 -14.34934,-8.69191 -19.27641,-8.69191 -4.05284,0 -7.40517,3.06445 -7.01749,6.41486 0.26434,2.28452 0.72249,2.53809 5.51773,3.05375 6.48412,0.69728 19.34916,6.78948 27.4514,12.9995 3.20281,2.45482 7.07392,5.11366 8.60247,5.90852 1.52854,0.79487 3.81841,2.55753 5.08859,3.91703 2.25829,2.41708 6.12808,3.00056 6.12808,0.92399 z m 62.88204,0.41704 c 2.2996,-0.57904 4.41589,-1.43275 4.70289,-1.89711 0.46239,-0.74817 -1.80111,-0.58885 -8.52243,0.59985 -1.03125,0.18239 -2.42724,0.36389 -3.10221,0.40334 -1.683,0.0984 -0.41438,1.94673 1.33615,1.94673 0.77249,0 3.28601,-0.47377 5.5856,-1.05281 z M 158.4375,379.27408 c 0,-0.98951 -1.79917,-1.40523 -2.3343,-0.53937 -0.32387,0.52403 0.0688,0.95279 0.87272,0.95279 0.80387,0 1.46158,-0.18604 1.46158,-0.41342 z m 129.375,-1.15339 c 0,-1.41617 -3.22808,-4.05819 -4.95841,-4.05819 -1.02041,0 -3.59175,0.47005 -5.71407,1.04457 -7.08201,1.9171 -6.7867,1.76256 -5.23874,2.7415 1.56755,0.99135 15.91122,1.23666 15.91122,0.27212 z m -120.12673,-1.66973 c 2.12245,-0.74884 5.86406,-2.53658 8.3147,-3.97274 6.29612,-3.68978 2.83959,-3.96442 -4.33201,-0.3442 -3.12262,1.57629 -6.95515,2.86598 -8.51672,2.86598 -2.71152,0 -3.56177,0.83997 -2.21424,2.1875 0.93665,0.93665 2.4849,0.76767 6.74827,-0.73654 z m 135.02238,-0.14548 c 0.95781,-0.82935 -5.26812,-2.24298 -9.87855,-2.24298 -5.44654,0 -6.65975,1.66338 -2.13509,2.92733 2.07558,0.57982 11.15068,0.0628 12.01364,-0.68435 z m -54.97378,-0.99192 c 2.44922,-0.30366 4.45313,-0.83242 4.45313,-1.17501 0,-1.13543 -6.90126,-3.77285 -7.91292,-3.02403 -0.54633,0.40438 -2.76429,1.29337 -4.92879,1.97552 -2.16451,0.68215 -4.17658,1.86863 -4.47127,2.63659 -0.44776,1.16685 0.19897,1.293 3.93545,0.76768 2.45921,-0.34575 6.47519,-0.87709 8.9244,-1.18075 z m 69.93004,-0.95974 c 0.33926,-0.5205 3.7809,-1.26996 7.64809,-1.66547 3.86719,-0.39551 9.5625,-0.98641 12.65625,-1.31311 l 5.625,-0.59399 -4.41966,-1.28435 c -3.62959,-1.05475 -5.55687,-1.07657 -10.78125,-0.12208 -3.49888,0.63925 -7.62721,1.72856 -9.17409,2.42071 -1.54688,0.69216 -4.88889,1.37991 -7.42672,1.52834 -2.90685,0.17002 -4.77251,0.75014 -5.04201,1.56781 -0.34181,1.03704 0.65014,1.20853 4.93488,0.85321 2.94947,-0.24459 5.64025,-0.87057 5.97951,-1.39107 z m 30.14809,-2.16632 c 0,-0.51563 -0.63281,-0.9375 -1.40625,-0.9375 -0.77344,0 -1.40625,0.42187 -1.40625,0.9375 0,0.51562 0.63281,0.9375 1.40625,0.9375 0.77344,0 1.40625,-0.42188 1.40625,-0.9375 z M 76.249083,367.87832 c -1.154222,-2.65987 -1.690989,-3.1988 -1.964925,-1.97285 -0.367925,1.64657 2.340831,6.84454 3.146807,6.03856 0.223381,-0.22338 -0.308466,-2.05295 -1.181882,-4.06571 z m 160.887357,2.12282 6.98021,-2.15085 -3.97671,-1.59117 c -2.59319,-1.03758 -4.53239,-1.30453 -5.57394,-0.76728 -0.87849,0.45312 -3.13689,1.10149 -5.01868,1.44082 -4.39499,0.79251 -6.27729,2.82795 -3.89618,4.21316 2.40172,1.39718 3.635,1.27426 11.4853,-1.14468 z m -136.39413,-0.23551 c -0.0215,-0.47266 -1.141701,-4.44532 -2.489507,-8.82813 -1.347806,-4.38281 -2.71694,-9.15888 -3.042506,-10.61348 -0.339694,-1.51769 -1.076606,-2.46652 -1.729249,-2.22656 -0.625514,0.22999 -0.989903,0.99824 -0.809755,1.70723 4.782038,18.81994 5.710932,21.61999 7.026807,21.18136 0.59573,-0.19857 1.06563,-0.74777 1.04421,-1.22042 z M 267.1875,369.375 c -0.77344,-0.49984 -2.25,-0.90878 -3.28125,-0.90878 -1.55263,0 -1.63322,0.15624 -0.46875,0.90878 0.77344,0.49984 2.25,0.90878 3.28125,0.90878 1.55263,0 1.63322,-0.15624 0.46875,-0.90878 z M 67.5,368.4375 c 0,-0.51563 -0.421875,-0.9375 -0.9375,-0.9375 -0.515625,0 -0.9375,0.42187 -0.9375,0.9375 0,0.51562 0.421875,0.9375 0.9375,0.9375 0.515625,0 0.9375,-0.42188 0.9375,-0.9375 z m 210.92805,-0.83662 c 2.81342,-0.78305 2.15053,-1.19405 -5.1468,-3.1911 -15.27336,-4.17985 -16.95891,-4.78199 -14.35209,-5.12713 1.3876,-0.18372 7.32879,0.95721 13.20266,2.53541 7.96609,2.14033 12.68482,2.86579 18.57083,2.85509 11.89729,-0.0217 11.98326,-1.48752 0.12393,-2.11315 -9.22947,-0.4869 -18.25335,-2.63324 -16.87326,-4.01332 0.27016,-0.27017 5.14099,0.0258 10.82406,0.65775 8.7733,0.97554 11.93996,0.92593 20.98086,-0.3287 9.92893,-1.37786 23.71888,-4.60285 24.95126,-5.83523 0.29727,-0.29728 -5.3306,-0.54279 -12.50637,-0.54558 -19.48382,-0.007 -49.38836,-4.8696 -53.35938,-8.67541 -1.23054,-1.17935 2.76428,-0.58701 16.875,2.50217 12.2059,2.67217 41.59653,4.75392 47.48154,3.36313 4.06812,-0.96141 3.61317,-1.0183 -11.38779,-1.42431 -15.70254,-0.42499 -35.41205,-3.28445 -48.75,-7.07264 -6.63737,-1.88512 -1.96393,-2.13774 7.74191,-0.41848 14.53825,2.57525 19.55026,3.31232 28.82059,4.23841 4.89844,0.48934 11.12109,1.15825 13.82812,1.48648 5.31693,0.64467 6.49585,-0.40065 2.34375,-2.07817 -10.45503,-4.22402 -13.09115,-5.0411 -16.2639,-5.0411 -2.63251,0 -3.86005,-0.50085 -4.59547,-1.875 -0.55191,-1.03125 -1.46937,-1.875 -2.0388,-1.875 -1.22991,0 -16.21355,-9.67879 -19.40886,-12.53729 -1.22589,-1.09668 -2.79141,-3.25959 -3.47893,-4.80646 l -1.25002,-2.8125 -0.0367,3.80047 c -0.0299,3.10128 0.52385,4.32672 3.01018,6.66097 3.62582,3.40403 11.43193,8.75731 12.76984,8.75731 1.33562,0 2.19525,1.64107 1.18627,2.26465 -1.29629,0.80115 -9.41936,-3.85486 -14.93878,-8.56266 -2.73187,-2.33016 -5.16276,-4.04093 -5.40198,-3.80171 -0.23922,0.23922 1.29353,2.39857 3.40609,4.79858 4.14361,4.70738 3.36974,5.77838 -1.49446,2.06827 -3.57398,-2.72597 -7.01139,-9.56135 -7.01139,-13.94224 0,-2.40023 -0.56014,-3.43283 -2.39476,-4.41469 -2.10632,-1.12727 -2.80399,-1.06166 -5.79226,0.54471 -1.86862,1.00448 -7.40618,5.7182 -12.30569,10.47493 -4.89951,4.75671 -11.13051,10.24109 -13.84666,12.1875 -2.71615,1.9464 -4.82331,3.94994 -4.68258,4.45232 0.14074,0.50237 1.48997,1.17252 2.9983,1.48923 5.40571,1.13506 25.71115,16.53168 25.71115,19.4955 0,1.38431 7.86415,4.88047 12.87328,5.72308 5.55165,0.93387 6.69246,0.94998 9.61727,0.13591 z m 80.90047,-0.0238 c 1.2447,-0.47323 4.71217,-2.68807 7.7055,-4.92187 l 5.44243,-4.06146 -6.4726,-0.50102 c -3.55993,-0.27556 -6.68722,-0.20441 -6.94954,0.15811 -0.26232,0.36252 -1.91733,0.79891 -3.67781,0.96977 -3.74128,0.36308 -5.17901,2.65439 -1.66556,2.65439 3.48135,0 8.16406,1.08013 8.16406,1.88315 0,0.3912 -4.11328,0.87846 -9.14063,1.08281 -10.47485,0.42577 -14.48473,1.85286 -7.73437,2.75261 6.82375,0.90954 11.90827,0.90369 14.32852,-0.0165 z m -267.281645,-3.0927 c -0.672715,-0.67271 -1.109375,-0.72806 -1.109375,-0.14062 0,1.25135 1.108697,2.36005 1.734375,1.73437 0.266407,-0.2664 -0.01484,-0.98359 -0.625,-1.59375 z m 133.421875,0.54586 c 2.57812,-0.84785 5.32031,-1.72504 6.09375,-1.94929 1.10365,-0.32 0.93,-0.79622 -0.80698,-2.21309 -2.30349,-1.87896 -6.69302,-2.47183 -6.69302,-0.90398 0,0.49575 -1.72824,1.36672 -3.84053,1.93551 -3.72289,1.00246 -3.79024,1.08974 -2.19845,2.84864 1.98579,2.19428 1.66772,2.18222 7.44523,0.28221 z m -121.88452,-8.42161 c -2.5145,-6.28528 -5.026571,-10.58347 -6.219474,-10.64166 -0.478275,-0.0233 2.762874,11.25732 5.359274,18.65261 0.39729,1.13158 0.69774,1.11044 1.94502,-0.13684 1.34188,-1.34188 1.24387,-2.0533 -1.08482,-7.87411 z M 317.34375,363.75 c 0.73985,-1.19709 -2.36638,-1.19709 -4.21875,0 -1.0999,0.71081 -0.85667,0.91192 1.11654,0.92315 1.38754,0.007 2.78354,-0.40753 3.10221,-0.92315 z M 64.6875,360.9375 c 0,-1.03125 -0.382379,-1.875 -0.849731,-1.875 -0.467353,0 -0.629086,0.84375 -0.359409,1.875 0.269678,1.03125 0.652058,1.875 0.849732,1.875 0.197674,0 0.359408,-0.84375 0.359408,-1.875 z m 23.066407,-0.6836 c -0.952984,-0.95298 -1.739295,0.48178 -0.957392,1.74692 0.590658,0.95571 0.811478,0.95645 1.129033,0.004 0.21712,-0.65136 0.139881,-1.43918 -0.171641,-1.7507 z m 242.888903,1.14004 c 1.86729,-0.78021 3.1959,-1.61773 2.95246,-1.86117 -0.68446,-0.68446 -11.09527,1.69488 -11.09527,2.53576 0,1.21915 4.50337,0.84607 8.14281,-0.67459 z M 80.056585,359.45291 c 0.350368,-0.91304 0.140849,-1.34163 -0.544229,-1.11328 -1.401409,0.46714 -2.173025,2.59787 -0.940783,2.59787 0.503427,0 1.171683,-0.66806 1.485012,-1.48459 z m 138.380915,0.0783 3.28125,-1.2636 -3.43895,-0.0713 c -3.89002,-0.0807 -6.4048,0.66691 -6.4048,1.90399 0,1.16114 2.6711,0.92953 6.5625,-0.56905 z m 127.03125,-3.71615 c 2.80418,-1.28401 2.80541,-1.28804 0.41356,-1.36396 -1.31942,-0.0419 -3.21786,0.54326 -4.21875,1.3003 -2.39919,1.81465 -0.10274,1.85308 3.80519,0.0636 z M 57.619606,353.20312 C 57.374005,352.55859 56.805877,349.5 56.3571,346.40625 l -0.815959,-5.625 -0.101519,4.6875 c -0.114056,5.26637 0.632944,8.90625 1.827797,8.90625 0.439304,0 0.597788,-0.52734 0.352187,-1.17188 z m 47.366714,-3.55033 c -1.02373,-2.59721 -1.86132,-5.55033 -1.86132,-6.5625 0,-1.01216 -0.42187,-1.84029 -0.9375,-1.84029 -1.30561,0 -1.20512,0.71846 1.02356,7.31797 1.0786,3.19386 2.33806,5.80703 2.79882,5.80703 0.46077,0 1.6e-4,-2.12499 -1.02356,-4.72221 z m -20.908401,1.73393 c -0.299274,-0.74787 -0.521421,-0.52573 -0.566406,0.56641 -0.04071,0.98827 0.18087,1.54199 0.492394,1.23047 0.311522,-0.31153 0.344829,-1.12013 0.07402,-1.79688 z m 274.761141,1.40664 c -0.89634,-0.23464 -2.58384,-0.24316 -3.75,-0.0189 -1.16617,0.22425 -0.43281,0.41624 1.62969,0.42664 2.0625,0.0104 3.01664,-0.17307 2.12031,-0.40772 z m 12.40437,-0.4577 c 3.61298,-0.034 6.56907,-0.4328 6.56907,-0.88623 0,-0.96455 -4.10798,-1.04666 -10.99198,-0.21974 -2.69402,0.3236 -4.66878,0.95963 -4.38835,1.41339 0.28044,0.45375 0.89966,0.58412 1.37604,0.2897 0.47637,-0.29442 3.82222,-0.56312 7.43522,-0.59712 z M 210.9375,351.5625 c 0,-0.51563 -0.81885,-0.9375 -1.81967,-0.9375 -1.00082,0 -2.0804,0.42187 -2.39908,0.9375 -0.32861,0.53171 0.45902,0.9375 1.81967,0.9375 1.31949,0 2.39908,-0.42188 2.39908,-0.9375 z M 62.422759,348.98437 c -1.054301,-3.35154 -2.423219,-11.84886 -2.437115,-15.12795 -0.0079,-1.86322 -0.463648,-4.02048 -1.012784,-4.79392 -0.736547,-1.0374 -0.87677,-0.0538 -0.5346,3.75 0.771607,8.57772 2.63601,17.8125 3.596155,17.8125 0.497441,0 0.672195,-0.73828 0.388344,-1.64063 z m 275.499111,-1.98833 c -1.36523,-1.25154 -6.04687,-2.14541 -6.04687,-1.15453 0,1.10913 1.69515,1.80206 4.64062,1.89697 1.35776,0.0438 1.93273,-0.25981 1.40625,-0.74244 z m -230.9472,-5.78995 -0.91832,-2.29984 -0.0594,2.50145 c -0.0327,1.3758 0.25317,3.27423 0.63523,4.21875 0.64474,1.5939 0.715,1.57941 0.97775,-0.20161 0.1557,-1.05541 -0.13017,-2.95385 -0.63524,-4.21875 z m 108.90255,3.17897 c -0.63472,-0.2568 -1.90035,-0.27243 -2.8125,-0.0348 -0.91216,0.2377 -0.39285,0.44781 1.15403,0.46692 1.54687,0.0191 2.29318,-0.17537 1.65847,-0.43218 z m 122.34853,-0.50837 c 4.86852,0.19727 6.5788,-0.17002 9.92612,-2.13168 4.63404,-2.71573 6.22313,-2.96183 6.22313,-0.96376 0,1.94867 0.98048,1.72175 3.98437,-0.92216 4.11183,-3.61906 3.38794,-4.5777 -2.8125,-3.72453 -8.37426,1.15227 -27.87224,1.05547 -29.38784,-0.14591 -0.7234,-0.57343 -2.55073,-1.33865 -4.06072,-1.70049 -7.41341,-1.77643 -25.12168,-11.03294 -30.22953,-15.80164 -2.58908,-2.41718 -10.16026,-6.24481 -15.66872,-7.92136 -1.19506,-0.36374 -0.17913,1.48436 3.13245,5.69826 3.3746,4.29409 5.53952,6.23658 6.95072,6.23658 1.12726,0 2.88173,0.57018 3.89879,1.26707 4.56761,3.12967 21.66745,10.02022 28.52185,11.49317 4.15037,0.89186 7.54613,1.97161 7.54613,2.39942 0,0.42781 -0.73828,0.77515 -1.64063,0.77186 -3.08896,-0.0112 -22.61743,-5.52126 -26.39055,-7.44616 -4.21566,-2.15066 -4.78132,-2.2809 -4.78132,-1.1008 0,1.02992 6.52965,3.82949 16.875,7.23512 6.72826,2.21491 9.53781,2.62362 18.04817,2.6255 10.49929,0.002 12.66206,1.41372 3.33514,2.17647 -2.73738,0.22386 -5.60987,0.63147 -6.38331,0.90582 -2.36697,0.83955 1.97789,2.17955 4.6875,1.44567 1.28906,-0.34914 4.99065,-0.52754 8.22575,-0.39645 z M 76.828335,343.35937 c -0.02567,-0.38671 -0.822908,-5.76562 -1.771647,-11.95312 -1.169913,-7.62995 -1.758625,-9.89248 -1.829531,-7.03125 -0.142994,5.77006 1.873426,19.6875 2.852412,19.6875 0.437487,0 0.774432,-0.31641 0.748766,-0.70313 z m 9.499673,-6.51138 C 84.623401,326.6831 83.190494,320.625 82.490827,320.625 c -0.754106,0 0.242207,6.93043 2.403097,16.71613 1.879678,8.51222 2.886204,8.1661 1.434084,-0.49314 z m -6.173088,-3.72517 c -1.841192,-10.82107 -2.83451,-12.74014 -2.052894,-3.96616 0.523,5.87091 2.556908,14.24691 3.283161,13.52066 0.185856,-0.18586 -0.367764,-4.48539 -1.230267,-9.5545 z m 11.156559,1.09593 c -1.392192,-7.57208 -3.101584,-13.05365 -3.840323,-12.31491 -0.432574,0.43258 1.001235,9.49655 2.664487,16.84384 1.678795,7.41595 2.670042,3.598 1.175836,-4.52893 z m -20.182548,3.04687 c -0.443743,-2.1914 -1.080131,-6.0006 -1.414196,-8.46488 -0.848636,-6.26008 -2.436104,-6.73689 -1.742493,-0.52338 1.213164,10.86778 1.733544,12.97264 3.207205,12.97264 0.415959,0 0.393226,-1.79297 -0.05051,-3.98438 z m 132.777319,3.04688 c 0.31868,-0.51563 0.15753,-0.9375 -0.3581,-0.9375 -0.51562,0 -1.19822,0.42187 -1.5169,0.9375 -0.31868,0.51562 -0.15753,0.9375 0.3581,0.9375 0.51562,0 1.19822,-0.42188 1.5169,-0.9375 z m 17.34375,0.0553 c 0,-1.26597 -1.70901,-2.14358 -2.82779,-1.45213 -0.52404,0.32387 -0.71008,0.98158 -0.41342,1.46158 0.70375,1.1387 3.24121,1.1313 3.24121,-0.009 z m -7.24778,-0.67027 c -0.63472,-0.2568 -1.90035,-0.27243 -2.8125,-0.0348 -0.91216,0.23769 -0.39285,0.4478 1.15403,0.46691 1.54687,0.0191 2.29318,-0.17537 1.65847,-0.43218 z m -117.856383,-6.4684 c -0.352959,-1.88141 -0.876121,-3.18638 -1.162575,-2.89992 -0.286462,0.28645 -0.23205,2.06018 0.1209,3.9416 0.35296,1.88141 0.876122,3.18638 1.162575,2.89992 0.286463,-0.28645 0.23205,-2.06017 -0.1209,-3.9416 z m 88.072913,3.33336 c 0.31868,-0.51563 0.15753,-0.9375 -0.3581,-0.9375 -0.51562,0 -1.19822,0.42187 -1.5169,0.9375 -0.31868,0.51562 -0.15753,0.9375 0.3581,0.9375 0.51562,0 1.19822,-0.42188 1.5169,-0.9375 z m 9.58985,-0.56641 c -0.31153,-0.31152 -1.12013,-0.34482 -1.79688,-0.074 -0.74787,0.29927 -0.52573,0.52142 0.56641,0.5664 0.98827,0.0407 1.54199,-0.18087 1.23047,-0.49239 z m 8.22265,-0.37109 c 0.31868,-0.51563 -0.0534,-0.9375 -0.82685,-0.9375 -0.77343,0 -1.66697,0.42187 -1.98565,0.9375 -0.31868,0.51562 0.0534,0.9375 0.82685,0.9375 0.77343,0 1.66697,-0.42188 1.98565,-0.9375 z m 8.90625,0.0294 c 0,-0.49944 -0.63281,-0.66524 -1.40625,-0.36845 -0.77344,0.2968 -1.40625,0.70543 -1.40625,0.90808 0,0.20264 0.63281,0.36845 1.40625,0.36845 0.77344,0 1.40625,-0.40864 1.40625,-0.90808 z m 17.34375,-0.96694 c 0.35945,-0.5816 -1.37807,-0.9375 -4.57685,-0.9375 -2.83593,0 -5.41697,0.42187 -5.73565,0.9375 -0.35945,0.5816 1.37807,0.9375 4.57685,0.9375 2.83593,0 5.41697,-0.42188 5.73565,-0.9375 z M 64.796423,329.43837 c -0.471943,-2.01141 -0.894694,-2.81337 -0.939449,-1.78212 -0.09676,2.22966 0.913953,6.32282 1.433091,5.80369 0.200438,-0.20044 -0.0217,-2.01014 -0.493642,-4.02157 z m 299.345647,3.74258 c 0.81562,-0.31298 1.48293,-1.11703 1.48293,-1.78679 0,-0.9628 -0.48916,-0.99087 -2.33644,-0.13408 -3.61048,1.67459 -2.86672,3.34845 0.85351,1.92087 z M 191.71875,331.875 c 0.31868,-0.51563 -0.0783,-0.9375 -0.88217,-0.9375 -0.80387,0 -1.46158,0.42187 -1.46158,0.9375 0,0.51562 0.39697,0.9375 0.88217,0.9375 0.48519,0 1.1429,-0.42188 1.46158,-0.9375 z m 34.50846,-0.9247 c 4.02652,-0.008 7.09271,-0.38209 6.81376,-0.83345 -0.27896,-0.45136 -3.78433,-0.70596 -7.78971,-0.56578 -10.6613,0.37313 -10.56376,0.35932 -10.56376,1.49577 0,0.62811 0.84375,0.82073 2.10937,0.48156 1.16016,-0.31092 5.40381,-0.57106 9.43034,-0.5781 z m 98.61654,-1.44095 c -5.98968,-1.66318 -7.1559,-1.65713 -4.21875,0.0219 1.28906,0.73689 3.82031,1.32628 5.625,1.30975 3.1023,-0.0284 3.0256,-0.10104 -1.40625,-1.33165 z m 38.58101,-0.60098 c 2.98694,-0.74888 3.99355,-1.49944 4.32312,-3.22351 0.3248,-1.6991 0.0174,-2.24736 -1.26005,-2.24736 -0.92933,0 -1.92785,0.38537 -2.21895,0.85639 -0.70376,1.13871 -8.25121,4.76477 -9.95549,4.78296 -1.11483,0.0119 -1.12662,0.1525 -0.069,0.82259 1.30574,0.82731 2.3978,0.70941 9.18035,-0.99107 z m -190.24116,0.52522 c -0.31153,-0.31152 -1.12013,-0.34482 -1.79688,-0.074 -0.74787,0.29927 -0.52573,0.52142 0.56641,0.5664 0.98827,0.0407 1.54199,-0.18087 1.23047,-0.49239 z M 236.71875,326.25 c -0.32607,-0.5276 -4.83504,-0.9375 -10.3125,-0.9375 -5.47746,0 -9.98643,0.4099 -10.3125,0.9375 -0.37358,0.60445 3.28996,0.9375 10.3125,0.9375 7.02254,0 10.68608,-0.33305 10.3125,-0.9375 z M 180,325.3125 c 0.99817,-0.64507 -0.15806,-0.91296 -3.98438,-0.92315 -2.97832,-0.007 -5.39062,0.40518 -5.39062,0.92315 0,1.19991 7.51828,1.19991 9.375,0 z m 33.75,-2.44405 c 0,-0.20264 -0.63281,-0.36845 -1.40625,-0.36845 -0.77344,0 -1.40625,0.40864 -1.40625,0.90808 0,0.49944 0.63281,0.66524 1.40625,0.36845 0.77344,-0.29681 1.40625,-0.70543 1.40625,-0.90808 z m 28.125,0.56905 c 0,-0.51563 -1.50146,-0.9375 -3.33658,-0.9375 -1.98565,0 -3.10198,0.37957 -2.75717,0.9375 0.31868,0.51562 1.82014,0.9375 3.33658,0.9375 1.51644,0 2.75717,-0.42188 2.75717,-0.9375 z m -53.4375,-2.70876 c 0,-0.74354 -15.00249,-0.42513 -17.34375,0.3681 -0.51563,0.1747 3.17578,0.35094 8.20312,0.39164 5.02735,0.0407 9.14063,-0.30117 9.14063,-0.75974 z m 58.54059,-2.18734 c 2.20169,-3.14336 1.85054,-3.54883 -2.99372,-3.45685 l -4.45312,0.0846 3.28125,1.06445 3.28125,1.06447 -4.21875,0.25494 c -2.32031,0.14021 -6.11719,0.56286 -8.4375,0.9392 l -4.21875,0.68425 6.5625,0.55874 c 3.60937,0.3073 7.27686,0.63324 8.14997,0.72429 0.8731,0.091 2.2442,-0.77207 3.04687,-1.91805 z m -22.68121,0.52521 c -0.64454,-0.26007 -1.69922,-0.26007 -2.34375,0 -0.64454,0.26007 -0.11719,0.47287 1.17187,0.47287 1.28906,0 1.81641,-0.2128 1.17188,-0.47287 z m -34.45313,-2.18059 c 5.11825,-0.65785 4.76067,-0.72275 -3.96916,-0.72045 -5.27678,9.3e-4 -10.9721,0.32932 -12.65625,0.72876 -4.1684,0.98862 8.91984,0.98208 16.62541,-0.008 z m -17.8125,-3.76102 c -0.31868,-0.51563 -1.18732,-0.9375 -1.93033,-0.9375 -0.74301,0 -1.35092,0.42187 -1.35092,0.9375 0,0.51562 0.86865,0.9375 1.93033,0.9375 1.06168,0 1.6696,-0.42188 1.35092,-0.9375 z m 27.65625,-2.8125 c 0,-0.51563 -0.63281,-0.9375 -1.40625,-0.9375 -0.77344,0 -1.40625,0.42187 -1.40625,0.9375 0,0.51562 0.63281,0.9375 1.40625,0.9375 0.77344,0 1.40625,-0.42188 1.40625,-0.9375 z M 215.15625,307.5 c 1.57127,-0.6752 1.38143,-0.81639 -1.17188,-0.8716 -1.67578,-0.0362 -3.04687,0.35597 -3.04687,0.8716 0,1.11297 1.62872,1.11297 4.21875,0 z m -44.70364,-16.41022 c -0.58833,-1.29123 -1.25061,-2.16677 -1.47175,-1.94565 -0.66214,0.66215 0.76486,4.29337 1.68722,4.29337 0.46982,0 0.37286,-1.05647 -0.21547,-2.34772 z m -14.39438,-12.43617 c -1.40124,-3.98605 -2.93053,-7.98564 -3.39845,-8.88799 -0.54646,-1.05381 -0.50363,-1.64062 0.11974,-1.64062 1.49082,0 1.16065,-1.36883 -0.90452,-3.75 -1.03125,-1.18904 -1.875,-2.51922 -1.875,-2.95595 0,-1.58274 3.02235,-0.74413 4.74041,1.31532 2.9271,3.50874 2.03611,0.50335 -1.45916,-4.92187 -3.25216,-5.04787 -4.26508,-8.2187 -2.22213,-6.95608 0.64268,0.39719 0.88899,0.14247 0.62642,-0.6478 -0.23799,-0.7163 -2.92944,-2.73579 -5.981,-4.48775 -5.69066,-3.2671 -13.55733,-5.18335 -20.83181,-5.07442 -5.20576,0.078 -15.52833,5.24321 -18.24965,9.13183 -2.19595,3.13792 -7.296061,7.9953 -8.419955,8.01925 -0.386719,0.008 -0.703125,0.37328 -0.703125,0.81122 0,0.43793 4.42971,1.04709 9.84379,1.35369 10.09325,0.57158 9.89694,0.51394 26.4707,7.77193 6.43263,2.81697 10.97659,6.35486 13.57441,10.56893 3.24449,5.26305 10.08326,10.5514 10.89844,8.42766 0.17522,-0.45649 -0.82788,-4.0913 -2.22911,-8.07735 z m 18.64256,4.03713 c 0.56754,-1.479 -3.4429,-5.19074 -5.60847,-5.19074 -1.48914,0 -1.70816,1.49962 -0.34232,2.34375 0.51562,0.31867 0.9375,1.39826 0.9375,2.39908 0,2.20687 4.19451,2.58162 5.01329,0.44791 z m 206.34608,-4.34815 c 0.53301,-0.50426 -1.161,-0.83745 -4.21875,-0.82979 -6.1317,0.0154 -9.51139,0.8072 -8.74411,2.04868 0.66484,1.07575 11.62693,0.045 12.96286,-1.21889 z M 215.70688,270.153 c -0.55414,-1.03542 -2.16026,-2.78933 -3.56915,-3.89756 -4.05851,-3.19242 -3.93362,-0.21845 0.14789,3.52198 3.67742,3.37011 5.10794,3.52715 3.42126,0.37558 z m 139.31437,-6.48113 c -0.23581,-0.90234 -0.42875,-0.16406 -0.42875,1.64063 0,1.80469 0.19294,2.54297 0.42875,1.64062 0.2358,-0.90234 0.2358,-2.3789 0,-3.28125 z M 367.5,264.375 c 0,-0.51563 -0.63281,-0.9375 -1.40625,-0.9375 -0.77344,0 -1.40625,0.42187 -1.40625,0.9375 0,0.51562 0.63281,0.9375 1.40625,0.9375 0.77344,0 1.40625,-0.42188 1.40625,-0.9375 z m -209.6555,-7.75622 c -1.47854,-2.0978 -3.32106,-4.00854 -4.0945,-4.24611 -0.84221,-0.25868 -0.44825,0.65162 0.98225,2.26958 1.31368,1.48583 2.98805,3.90101 3.72085,5.36708 0.73279,1.46607 1.5005,2.16114 1.70601,1.54461 0.20551,-0.61654 -0.83607,-2.83736 -2.31461,-4.93516 z m 211.5305,3.06872 c 0,-0.51563 -1.92334,-0.9375 -4.27408,-0.9375 -2.61066,0 -4.04858,0.36487 -3.69467,0.9375 0.31867,0.51562 2.24201,0.9375 4.27408,0.9375 2.03207,0 3.69467,-0.42188 3.69467,-0.9375 z M 371.25,255 c 0,-0.51563 -0.63281,-0.9375 -1.40625,-0.9375 -0.77344,0 -1.40625,0.42187 -1.40625,0.9375 0,0.51562 0.63281,0.9375 1.40625,0.9375 0.77344,0 1.40625,-0.42188 1.40625,-0.9375 z m 19.4881,0.16489 c 3.90766,-0.61603 5.72385,-2.74559 1.93721,-2.27146 -1.04185,0.13045 -2.58499,-0.14936 -3.42922,-0.62182 -1.21536,-0.68015 -0.80867,-0.99526 1.95323,-1.51339 6.33401,-1.18828 3.76864,-2.42142 -3.77745,-1.81578 -8.08328,0.64875 -9.6091,0.97324 -9.60995,2.04377 -3.2e-4,0.4029 2.10905,0.58636 4.6875,0.40769 2.68616,-0.18614 4.68808,0.0712 4.68808,0.60282 0,1.36161 -2.42291,2.06578 -7.10793,2.06578 -2.27813,0 -4.14207,0.42188 -4.14207,0.9375 0,1.04801 8.5915,1.14372 14.8006,0.16489 z m -39.06116,-6.4227 c -0.81708,-1.4051 -1.00002,-1.4456 -1.02343,-0.22657 -0.0303,1.57883 0.95549,3.00038 1.61992,2.33594 0.21914,-0.21914 -0.0493,-1.16836 -0.59649,-2.10937 z m 16.29181,1.57031 c 0.31867,-0.51563 -0.28924,-0.9375 -1.35092,-0.9375 -1.06168,0 -1.93033,0.42187 -1.93033,0.9375 0,0.51562 0.60791,0.9375 1.35092,0.9375 0.74301,0 1.61166,-0.42188 1.93033,-0.9375 z m 5.625,0 c -0.31867,-0.51563 -1.18732,-0.9375 -1.93033,-0.9375 -0.74301,0 -1.35092,0.42187 -1.35092,0.9375 0,0.51562 0.86865,0.9375 1.93033,0.9375 1.06168,0 1.66959,-0.42188 1.35092,-0.9375 z m -10.78125,-0.41342 c 0,-0.98951 -1.79917,-1.40523 -2.3343,-0.53937 -0.32387,0.52403 0.0688,0.95279 0.87272,0.95279 0.80387,0 1.46158,-0.18604 1.46158,-0.41342 z M 375,246.5625 c 0,-0.51563 -0.86865,-0.9375 -1.93033,-0.9375 -1.06168,0 -1.66959,0.42187 -1.35092,0.9375 0.31867,0.51562 1.18732,0.9375 1.93033,0.9375 0.74301,0 1.35092,-0.42188 1.35092,-0.9375 z m 14.98771,0.16489 c 3.08982,-0.46543 4.29724,-1.10582 4.54847,-2.41241 0.30605,-1.59176 -0.0376,-1.70383 -3.26896,-1.06602 -1.98603,0.392 -5.68695,0.98151 -8.22427,1.31001 -5.98606,0.77501 -6.99762,2.96858 -1.3242,2.87154 2.23437,-0.0383 5.95541,-0.35463 8.26896,-0.70312 z m -25.55411,-0.7313 c -0.31153,-0.31152 -1.12013,-0.34482 -1.79688,-0.074 -0.74787,0.29927 -0.52573,0.52142 0.56641,0.5664 0.98827,0.0407 1.54199,-0.18087 1.23047,-0.49239 z m 11.03515,-3.18359 c 0.31867,-0.51563 -0.1032,-0.9375 -0.9375,-0.9375 -0.8343,0 -1.25617,0.42187 -0.9375,0.9375 0.31867,0.51562 0.74055,0.9375 0.9375,0.9375 0.19695,0 0.61883,-0.42188 0.9375,-0.9375 z m -265.28673,-1.26104 c 1.01708,-0.69357 5.8618,-2.38825 10.76606,-3.76595 7.96345,-2.23709 9.91804,-2.44231 18.28124,-1.91941 7.87287,0.49224 9.16976,0.38278 8.14222,-0.68717 -0.90976,-0.94733 -4.38488,-1.26923 -13.59375,-1.25918 -11.01511,0.012 -12.83409,0.24841 -16.59029,2.15603 -5.56133,2.82437 -10.32771,5.50192 -11.01168,6.18589 -1.10305,1.10306 2.20793,0.51609 4.0062,-0.71021 z m 38.88048,-2.02021 c -2.6367,-1.50728 -5.58499,-1.90285 -4.17188,-0.55974 0.83618,0.79473 3.46264,1.65358 5.57813,1.82402 0.51562,0.0415 -0.11719,-0.52739 -1.40625,-1.26428 z m 222.8711,-2.91016 c -0.31153,-0.31152 -1.12013,-0.34482 -1.79688,-0.074 -0.74787,0.29927 -0.52573,0.52142 0.56641,0.5664 0.98827,0.0407 1.54199,-0.18087 1.23047,-0.49239 z m -16.19239,-7.93587 c -0.29665,-0.47999 -1.67463,-0.85777 -3.06217,-0.8395 l -2.52279,0.0332 2.33198,1.29078 c 2.40081,1.32887 4.20741,1.05979 3.25298,-0.4845 z m 5.19629,-3.55464 c 0,-0.4438 -2.00391,-1.0658 -4.45313,-1.38224 -2.44921,-0.31642 -5.40234,-0.84627 -6.5625,-1.17742 -3.33315,-0.95141 -2.45387,1.10983 0.9375,2.19775 3.79533,1.21751 10.07813,1.44313 10.07813,0.36191 z m 17.8125,-2.96094 c 0,-0.56715 -1.04762,-0.70403 -2.57813,-0.33687 -3.68061,0.88298 -3.80431,1.29223 -0.39062,1.29223 1.63281,0 2.96875,-0.42991 2.96875,-0.95536 z m -14.76563,-2.93855 c 0.90235,-0.47276 1.64063,-1.74723 1.64063,-2.83216 0,-1.79942 -0.39094,-1.9281 -4.45313,-1.46566 -4.55498,0.51852 -10.41834,-0.21009 -16.06482,-1.99629 -4.52123,-1.43025 -2.7325,-0.0435 2.51417,1.9491 2.5771,0.97876 6.92328,1.67521 10.4569,1.67566 4.49225,5.6e-4 5.77473,0.27291 4.98833,1.05931 -0.69268,0.69268 -3.84293,0.91241 -9.11426,0.63574 -8.64052,-0.45352 -9.5455,0.44328 -1.92094,1.90353 4.80631,0.92051 9.05267,0.59041 11.95312,-0.92923 z m -0.35156,-7.00453 c 5.32333,-1.06466 3.05699,-1.94689 -6.3301,-2.46415 -6.38012,-0.35156 -10.6076,-1.10644 -13.59375,-2.42737 -2.38368,-1.0544 -4.33396,-1.59416 -4.33396,-1.19944 0,0.97246 8.02786,4.53295 12.65625,5.61327 4.69662,1.09624 7.85799,1.22641 11.60156,0.47769 z m 1.26863,-7.33339 c 1.47837,-1.03549 0.4718,-1.15305 -6.49792,-0.75887 -4.65499,0.26327 -9.85399,0.021 -11.93602,-0.55617 -3.16326,-0.87691 -3.49714,-0.83601 -2.34375,0.28716 3.35626,3.26829 16.64077,3.92549 20.77769,1.02788 z m -16.62019,-5.20567 c 0.31867,-0.51563 -0.0783,-0.9375 -0.88217,-0.9375 -0.80387,0 -1.46158,0.42187 -1.46158,0.9375 0,0.51562 0.39697,0.9375 0.88217,0.9375 0.48519,0 1.14291,-0.42188 1.46158,-0.9375 z m 18.77339,-0.60745 c 1.42451,-0.54664 2.62513,-3.15028 1.82271,-3.95271 -0.298,-0.29798 -0.8536,-0.0373 -1.23469,0.57933 -0.38109,0.61661 -3.58344,1.53047 -7.11634,2.03078 -9.30159,1.31727 -10.5959,3.30775 -1.60232,2.46416 3.79102,-0.3556 7.4498,-0.8603 8.13064,-1.12156 z m -24.39839,-1.26755 c -0.31867,-0.51563 -1.18732,-0.9375 -1.93033,-0.9375 -0.74301,0 -1.35092,0.42187 -1.35092,0.9375 0,0.51562 0.86865,0.9375 1.93033,0.9375 1.06168,0 1.66959,-0.42188 1.35092,-0.9375 z m -8.9334,-2.84912 c -0.7585,-0.47969 -2.01191,-0.86368 -2.78535,-0.8533 -0.81527,0.011 -0.42188,0.56364 0.93608,1.31518 2.51717,1.39307 4.14104,0.98749 1.84927,-0.46188 z m 18.07402,-0.58427 c -0.64453,-0.26007 -1.69921,-0.26007 -2.34375,0 -0.64453,0.26007 -0.11718,0.47287 1.17188,0.47287 1.28906,0 1.81641,-0.2128 1.17187,-0.47287 z m 11.55392,-0.43192 c 3.85863,-0.97161 5.8305,-2.26589 4.88803,-3.20837 -0.52871,-0.52871 -11.30338,2.48231 -12.4107,3.46821 -1.26281,1.12435 2.54837,0.9927 7.52267,-0.25984 z M 356.25,189.375 c 0,-0.51563 -0.84375,-0.9375 -1.875,-0.9375 -1.03125,0 -1.875,0.42187 -1.875,0.9375 0,0.51562 0.84375,0.9375 1.875,0.9375 1.03125,0 1.875,-0.42188 1.875,-0.9375 z m 13.36837,-3.88025 c 0.92628,-0.49573 1.46163,-1.26136 1.18968,-1.70139 -0.50607,-0.81883 -8.247,1.73341 -9.59308,3.16291 -0.93144,0.98916 6.11376,-0.23614 8.4034,-1.46152 z m -8.27169,-2.12184 c 4.80311,-2.1724 9.90332,-6.08809 9.90332,-7.60328 0,-0.91888 -0.90786,-0.99135 -3.92547,-0.31333 -2.15901,0.4851 -6.06135,0.7903 -8.67188,0.67822 -4.39582,-0.18874 -12.71515,1.4633 -12.71515,2.52495 0,0.25421 4.53516,0.17019 10.07812,-0.1867 9.32475,-0.60041 9.98194,-0.53254 8.79147,0.90791 -0.70767,0.85624 -1.94719,1.55682 -2.7545,1.55682 -1.6377,0 -7.66118,3.84097 -7.67119,4.89167 -0.004,0.3701 0.73188,0.34441 1.63423,-0.0571 0.90234,-0.4015 3.30132,-1.48111 5.33105,-2.39915 z m -9.78418,1.31459 c 0,-0.51563 -0.65771,-0.9375 -1.46158,-0.9375 -0.80387,0 -1.20084,0.42187 -0.88217,0.9375 0.31867,0.51562 0.97639,0.9375 1.46158,0.9375 0.48519,0 0.88217,-0.42188 0.88217,-0.9375 z M 326.71875,180 c -0.31867,-0.51563 -0.97639,-0.9375 -1.46158,-0.9375 -0.4852,0 -0.88217,0.42187 -0.88217,0.9375 0,0.51562 0.65771,0.9375 1.46158,0.9375 0.80387,0 1.20084,-0.42188 0.88217,-0.9375 z m 34.84008,-5.68301 c 1.44011,-0.54753 4.63163,-1.04137 7.09228,-1.09741 5.42456,-0.12356 5.86658,-1.2234 0.7666,-1.90745 -3.59588,-0.48231 -10.77762,1.29354 -12.65209,3.1285 -1.22082,1.1951 1.50992,1.12466 4.79321,-0.12364 z m -8.53636,-1.27159 c 1.00008,-0.73128 1.60805,-1.51151 1.35106,-1.73385 -0.80337,-0.69501 -6.56103,1.19415 -6.56103,2.15275 0,1.35354 3.13021,1.10186 5.20997,-0.4189 z m -7.98466,-3.83999 c 3.41648,-1.20541 10.66031,-6.26528 15.89969,-11.10605 0.77344,-0.7146 2.46094,-1.60671 3.75,-1.98248 2.80663,-0.81817 8.42208,-4.42393 8.4311,-5.41376 0.0104,-1.1397 -2.13548,-0.79977 -5.14985,0.81583 -1.54688,0.82907 -3.44531,1.59458 -4.21875,1.70115 -2.81739,0.38816 -4.55736,1.65318 -4.05925,2.95124 0.38093,0.9927 -0.33121,1.32866 -2.81637,1.32866 -1.82942,0 -3.58696,0.42187 -3.90563,0.9375 -0.31867,0.51562 0.32439,0.9375 1.42905,0.9375 2.60326,0 1.92337,2.24271 -0.80141,2.6436 -1.12091,0.16492 -2.47379,1.11413 -3.00643,2.10937 -0.53264,0.99525 -1.48093,1.8313 -2.10732,1.8579 -0.62639,0.0266 -3.67014,1.05156 -6.76389,2.27768 -4.22222,1.67335 -5.01145,2.24579 -3.16475,2.29538 1.35314,0.0364 4.27086,-0.57274 6.48381,-1.35352 z m 18.24344,-1.4551 c 1.875,-0.75646 1.875,-0.75646 0,-0.83024 -2.98193,-0.11734 0.34351,-1.88813 3.5788,-1.90572 2.21215,-0.012 2.54461,-0.319 2.0462,-1.88935 -0.38798,-1.22243 -0.16525,-1.88456 0.63995,-1.90248 1.59132,-0.0354 7.6857,-5.55312 6.94814,-6.29068 -0.85481,-0.85481 -4.76511,1.52459 -8.22854,5.00702 -1.71026,1.71964 -3.57151,3.14001 -4.13612,3.15637 -0.56462,0.0164 -1.75583,0.83558 -2.64713,1.82045 -0.8913,0.98488 -2.64418,2.0476 -3.8953,2.36162 -1.25111,0.31401 -2.27475,1.01828 -2.27475,1.56505 0,1.00864 4.18256,0.43545 7.96875,-1.09204 z m 8.95281,-0.43063 c 1.8162,-0.9392 2.76101,-2.14636 2.75159,-3.51563 -0.01,-1.39732 -0.2607,-1.6973 -0.76105,-0.90923 -0.41068,0.64683 -2.17368,2.22886 -3.91778,3.51562 -3.51601,2.59403 -2.37331,3.13313 1.92724,0.90924 z M 348.75,161.98767 c 0,-1.22467 -7.5629,-0.13906 -8.99285,1.29088 -1.15527,1.15528 -0.63932,1.20774 3.82883,0.38922 2.84021,-0.52031 5.16402,-1.27635 5.16402,-1.6801 z m 0.54337,-5.19431 C 348.63122,156.13122 345,157.55822 345,158.48058 c 0,0.46982 1.05647,0.37286 2.34772,-0.21547 1.29123,-0.58833 2.16677,-1.25061 1.94565,-1.47175 z M 358.6817,150 c 0.78592,0 1.16822,-0.42188 0.84955,-0.9375 -1.12439,-1.81929 -4.25446,-0.96564 -5.15625,1.40625 -0.4901,1.28906 -1.53435,2.34375 -2.32055,2.34375 -0.78619,0 -1.42945,0.67652 -1.42945,1.50337 0,1.11427 0.85769,0.7503 3.31387,-1.40625 C 355.7615,151.30933 357.89577,150 358.6817,150 Z M 337.5,152.70185 c 0,-0.51563 -0.42188,-0.67678 -0.9375,-0.3581 -0.51563,0.31868 -0.9375,1.00128 -0.9375,1.5169 0,0.51563 0.42187,0.67678 0.9375,0.3581 0.51562,-0.31868 0.9375,-1.00128 0.9375,-1.5169 z m -29.53125,-5.51435 c -0.31867,-0.51563 -1.00128,-0.9375 -1.5169,-0.9375 -0.51563,0 -0.67677,0.42187 -0.3581,0.9375 0.31867,0.51562 1.00128,0.9375 1.5169,0.9375 0.51563,0 0.67677,-0.42188 0.3581,-0.9375 z m 71.71875,-1.875 c 2.11101,-1.97198 2.55816,-2.8125 1.49622,-2.8125 -0.83301,0 -2.23701,0.84375 -3.12,1.875 -0.88298,1.03125 -2.67182,1.88146 -3.97519,1.88935 -1.87424,0.0113 -2.07572,0.2044 -0.96353,0.92315 2.23326,1.44324 3.35271,1.1234 6.5625,-1.875 z m -17.10468,0.23437 c 0.55549,-1.68673 -2.12683,-1.44467 -3.59505,0.32442 -1.08419,1.30638 -0.95934,1.45511 0.98365,1.17187 1.224,-0.17842 2.39913,-0.85175 2.6114,-1.49629 z m -16.64532,-2.06385 c 0,-0.38026 1.05349,-1.91715 2.34108,-3.41533 1.51599,-1.76391 1.94553,-2.85611 1.21875,-3.09894 -0.61728,-0.20625 -1.28924,0.12575 -1.49325,0.73777 -0.20401,0.61201 -1.38526,2.31823 -2.625,3.79157 -2.5999,3.08981 -2.83409,3.97813 -0.84783,3.21594 0.77344,-0.29681 1.40625,-0.85076 1.40625,-1.23101 z m 11.45874,-0.45333 c 2.72113,-1.25555 7.44746,-3.25946 10.50294,-4.45313 3.05549,-1.19367 5.71394,-2.6574 5.90768,-3.25272 0.41869,-1.28658 -8.13763,2.04843 -16.15061,6.29503 -8.44178,4.47385 -8.58521,5.25213 -0.26001,1.41082 z m 14.92938,-1.59281 c 3.03665,-1.10721 5.48688,-2.5725 5.48688,-3.28125 0,-1.65851 7.3e-4,-1.65863 -5.3136,0.90306 -2.49158,1.20103 -5.58484,2.64904 -6.8739,3.2178 -4.42479,1.95231 0.8595,1.29017 6.70062,-0.83961 z m 11.29116,-5.03063 c 1.27853,-4.59315 0.23494,-7.03125 -3.00964,-7.03125 -1.53705,0 -2.79464,0.42187 -2.79464,0.9375 0,0.51562 0.58768,0.9375 1.30595,0.9375 1.87304,0 2.47443,2.25017 1.50492,5.6307 -0.70595,2.46147 -0.59715,2.87902 0.68573,2.63184 0.83864,-0.16158 1.8771,-1.55942 2.30768,-3.10629 z M 390,135.41342 c 0,-2.01894 -0.73077,-3.95669 -1.95312,-5.17904 -2.6129,-2.6129 -3.05889,-1.86501 -1.34044,2.24781 0.78021,1.8673 1.41856,4.27728 1.41856,5.35553 0,1.07824 0.42187,1.69971 0.9375,1.38103 0.51562,-0.31868 0.9375,-2.03108 0.9375,-3.80533 z m -29.59389,-5.3353 c 5.23622,-11.27273 12.33318,-35.484211 9.97384,-34.026061 -0.46299,0.286144 -1.13642,2.311022 -1.4965,4.499731 -1.39496,8.47905 -9.61543,29.83069 -13.68564,35.54678 -1.64547,2.31084 -1.69093,2.65143 -0.3539,2.65143 1.01956,0 2.88507,-2.90847 5.5622,-8.67188 z m -22.04412,-2.10937 c 0.008,-1.6534 -0.14927,-1.59801 -1.33074,0.46875 -0.73689,1.28906 -1.3205,3.39844 -1.29689,4.6875 0.0418,2.28526 0.0751,2.27357 1.33074,-0.46875 0.70831,-1.54688 1.29191,-3.65625 1.29689,-4.6875 z m 26.35333,5.10427 c 0.5672,-1.05983 0.86099,-2.43092 0.65285,-3.04687 -0.20813,-0.61595 -1.09008,0.25119 -1.95987,1.92697 -0.8698,1.67579 -1.16359,3.04688 -0.65286,3.04688 0.51073,0 1.39267,-0.86714 1.95988,-1.92698 z m -33.1374,-5.7488 c -0.29927,-0.74787 -0.52142,-0.52573 -0.5664,0.56641 -0.0407,0.98827 0.18087,1.54199 0.49239,1.23047 0.31152,-0.31153 0.34482,-1.12013 0.074,-1.79688 z m 16.61735,-14.66035 c 2.94331,-6.87082 5.16305,-12.988008 4.93274,-13.593754 -0.23029,-0.605747 -1.14063,0.586134 -2.02298,2.648634 -0.88234,2.0625 -2.15335,4.38281 -2.82446,5.15625 -1.6097,1.85512 -7.02074,15.89772 -7.02626,18.23437 -0.007,3.05201 1.32683,0.66003 6.94096,-12.4455 z m 22.11723,8.93481 c 0,-1.0234 0.73828,-2.42116 1.64062,-3.10613 1.56251,-1.18611 1.56251,-1.24684 0,-1.27524 -2.08557,-0.0379 -2.06195,-1.24731 0.1421,-7.27733 0.9805,-2.68253 2.02717,-7.10625 2.32594,-9.83052 l 0.54323,-4.95321 -1.37501,5.42715 c -0.75625,2.98493 -1.78761,6.19811 -2.29191,7.14041 -0.5043,0.94229 -1.58657,4.95528 -2.40504,8.91775 -0.81847,3.96245 -1.74906,7.92115 -2.06799,8.79708 -0.50223,1.37937 -0.30754,1.35348 1.45409,-0.19332 1.11869,-0.98225 2.03397,-2.62325 2.03397,-3.64664 z m 4.65878,-0.19243 c 0,-0.51563 -0.40894,-0.30469 -0.90878,0.46875 -0.49984,0.77344 -0.90878,1.82812 -0.90878,2.34375 0,0.51563 0.40894,0.30469 0.90878,-0.46875 0.49984,-0.77344 0.90878,-1.82812 0.90878,-2.34375 z m -42.77311,-4.45312 c -0.60449,-6.04845 -0.88685,-7.01445 -1.78712,-6.11417 -0.80662,0.80661 0.65824,11.97354 1.57067,11.97354 0.44112,0 0.53851,-2.63672 0.21645,-5.85937 z m 47.19225,3.80859 c -0.29927,-0.74787 -0.52142,-0.52573 -0.5664,0.56641 -0.0407,0.98827 0.18087,1.54199 0.49239,1.23047 0.31152,-0.31153 0.34482,-1.12013 0.074,-1.79688 z m 2.84481,-15.51445 c -0.21548,-1.42506 -0.39756,-0.48164 -0.4046,2.09648 -0.007,2.57813 0.16928,3.74408 0.3918,2.59102 0.22253,-1.15307 0.22829,-3.26245 0.0128,-4.6875 z m -2.62986,-11.676317 c 0.0452,-3.965663 -0.23428,-7.400824 -0.621,-7.633691 -0.38671,-0.232867 -0.73384,5.121141 -0.77139,11.8978 -0.0479,8.650118 0.13709,10.924558 0.62099,7.633688 0.3791,-2.57813 0.72623,-7.932131 0.7714,-11.897797 z M 356.16975,90.46875 c -0.0516,-1.875 -0.0516,-1.875 -0.85725,0 -0.44315,1.03125 -0.82891,2.507812 -0.85725,3.28125 -0.0458,1.249997 0.0494,1.249997 0.85725,0 0.49984,-0.773438 0.8856,-2.25 0.85725,-3.28125 z M 372.84916,65.617984 C 372.37089,54.497833 371.25,53.626594 371.25,64.375 c 0,7.476471 0.36658,9.6875 1.60617,9.6875 0.1959,0 0.19274,-3.800033 -0.007,-8.444516 z m -1.27565,-11.752167 c -0.30533,-0.795675 -0.75621,-1.245618 -1.00195,-0.999872 -0.24575,0.245745 -0.16873,0.896752 0.17114,1.446682 0.92442,1.495745 1.46473,1.205166 0.83081,-0.446809 z M 263.90625,7.5 c 0.32309,-0.5227744 -0.3782,-0.9311494 -1.58529,-0.9231443 -1.74154,0.011549 -1.88981,0.1920107 -0.75846,0.9231443 1.74444,1.1273435 1.64701,1.1273435 2.34375,0 z m 5.15625,-0.9375 c 0,-0.515625 -0.39698,-0.9375 -0.88217,-0.9375 -0.48519,0 -1.14291,0.421875 -1.46158,0.9375 -0.31867,0.515625 0.0783,0.9375 0.88217,0.9375 0.80387,0 1.46158,-0.421875 1.46158,-0.9375 z M 315.46875,390 c -0.75061,-1.21451 5.15192,-1.21451 7.03125,0 1.03157,0.66665 0.35938,0.91261 -2.52279,0.92315 -2.16098,0.008 -4.18979,-0.40753 -4.50846,-0.92315 z M 333.75,387.92581 c -7.15191,-1.26769 -8.60755,-3.03275 -1.875,-2.27355 2.83594,0.31979 6.02483,0.58511 7.08644,0.58959 1.06161,0.005 2.74911,0.62755 3.75,1.38459 1.72752,1.30663 1.67718,1.37229 -0.99269,1.29487 -1.54688,-0.0448 -5.13281,-0.49283 -7.96875,-0.9955 z m 40.58031,-8.77258 c -2.02472,-0.88612 -6.90609,-1.34721 -14.87757,-1.40533 -9.05656,-0.066 -11.60416,-0.34596 -10.76557,-1.18284 1.5099,-1.50682 19.99996,-1.32632 25.63079,0.25022 4.72172,1.322 7.98879,3.87298 4.7812,3.73325 -0.96547,-0.0421 -3.11146,-0.66995 -4.76885,-1.3953 z M 30.092334,378.17 c 1.629957,-1.96398 6.470166,-4.36978 6.470166,-3.21596 0,0.51684 -1.720692,1.77104 -3.82376,2.78713 -2.836594,1.3705 -3.519807,1.48121 -2.646406,0.42883 z M 396.09375,375 c -0.31867,-0.51563 0.0783,-0.9375 0.88217,-0.9375 0.80387,0 1.46158,0.42187 1.46158,0.9375 0,0.51562 -0.39698,0.9375 -0.88217,0.9375 -0.48519,0 -1.14291,-0.42188 -1.46158,-0.9375 z M 31.893802,367.00859 c 0.652238,-0.7859 1.378951,-1.23584 1.614919,-0.99987 0.650155,0.65015 -0.670821,2.42878 -1.803842,2.42878 -0.621649,0 -0.550529,-0.53792 0.188923,-1.42891 z M 398.4375,345 c 0,-0.51563 1.26562,-0.9375 2.8125,-0.9375 1.54687,0 2.8125,0.42187 2.8125,0.9375 0,0.51562 -1.26563,0.9375 -2.8125,0.9375 -1.54688,0 -2.8125,-0.42188 -2.8125,-0.9375 z m 8.4386,-7.26331 c -7.64584,-0.357 -11.34361,-2.00157 -5.11048,-2.27287 5.71083,-0.24855 16.7262,0.30909 17.7034,0.89623 1.02921,0.61838 -2.11676,1.9999 -4.15652,1.82528 -0.77344,-0.0662 -4.56982,-0.2681 -8.4364,-0.44864 z m 9.84265,-11.51414 c -3.26324,-0.29978 -5.03456,-0.79718 -4.21875,-1.18466 0.77344,-0.36735 3.9375,-0.34011 7.03125,0.0606 7.05331,0.91342 4.78088,1.82169 -2.8125,1.12412 z m 2.92638,-11.24268 c 0.62594,-0.62594 2.23326,-0.65855 4.64062,-0.0942 l 3.683,0.86346 -4.64063,0.0942 c -3.15876,0.0641 -4.33483,-0.21162 -3.68299,-0.86346 z m 9.26112,-10.33354 c -4.125,-0.38262 -9.1875,-0.49581 -11.25,-0.25153 -2.82349,0.33441 -3.40255,0.19736 -2.34375,-0.55472 1.49104,-1.0591 17.76246,-1.39225 21.32812,-0.43668 2.19943,0.58941 2.98256,2.32702 0.9375,2.08011 -0.64453,-0.0778 -4.54687,-0.45454 -8.67187,-0.83718 z M 395.625,300.57804 c 0,-0.79583 4.4643,-1.14485 6.15817,-0.48144 1.28091,0.50167 0.64498,0.72839 -2.1738,0.775 -2.1914,0.0363 -3.98437,-0.0959 -3.98437,-0.29356 z m 9.375,0 c 0,-0.19771 1.05469,-0.56107 2.34375,-0.80749 1.28906,-0.24643 2.34375,-0.0847 2.34375,0.35945 0,0.44412 -1.05469,0.8075 -2.34375,0.8075 -1.28906,0 -2.34375,-0.16176 -2.34375,-0.35946 z m 20.625,-2.45304 c 0,-0.51563 1.45166,-0.9375 3.22592,-0.9375 1.77426,0 3.48666,0.42187 3.80533,0.9375 0.34992,0.56618 -0.92777,0.9375 -3.22592,0.9375 -2.09293,0 -3.80533,-0.42188 -3.80533,-0.9375 z m 8.90625,0 c 0.31867,-0.51563 1.39826,-0.9375 2.39908,-0.9375 1.00082,0 1.81967,0.42187 1.81967,0.9375 0,0.51562 -1.07959,0.9375 -2.39908,0.9375 -1.36065,0 -2.14828,-0.40579 -1.81967,-0.9375 z M 408.75,295.54319 c 0,-0.97537 5.15558,-2.07805 9.79687,-2.09537 4.57914,-0.0171 1.47874,1.64455 -4.40625,2.36151 -3.35648,0.4089 -5.39062,0.30847 -5.39062,-0.26614 z M 28.87619,288.04687 c -5.678548,-12.5234 -6.19182,-14.36253 -8.69956,-31.17187 -1.346181,-9.02344 -2.874656,-17.76808 -3.39661,-19.43256 -1.740762,-5.55114 -2.493913,-12.70489 -1.656775,-15.73676 0.824616,-2.98652 9.655359,-16.20215 14.399421,-21.54943 2.94442,-3.31881 10.774416,-15.54231 10.783517,-16.83428 0.0035,-0.49321 1.642125,-3.2354 3.641446,-6.09375 2.212798,-3.16353 3.898508,-6.84765 4.308262,-9.41572 1.262663,-7.91353 4.191346,-15.1567 8.656766,-21.40978 2.453386,-3.43556 5.751965,-8.16314 7.330176,-10.50575 3.022579,-4.48654 3.355345,-4.89947 10.544262,-13.08447 5.08614,-5.79086 7.433778,-9.21867 9.702348,-14.16649 C 87.293833,102.52957 104.9497,86.25 108.77886,86.25 c 3.43106,0 2.77089,1.845542 -1.42249,3.976678 -6.18406,3.142826 -18.461838,15.685952 -22.114801,22.592742 -1.67971,3.17588 -3.342525,5.98527 -3.695146,6.24308 -0.352621,0.25781 -1.771108,2.15625 -3.152195,4.21875 -3.955229,5.9067 -7.081896,10.11727 -9.398216,12.65625 -4.393808,4.81617 -9.983768,13.8436 -13.351909,21.5625 -2.83683,6.50127 -3.662303,9.83913 -4.482509,18.12534 -0.552939,5.58613 -1.32175,9.84004 -1.708469,9.45313 C 49.066406,184.69156 48.75,183.20458 48.75,181.77408 c 0,-1.43051 -0.449945,-2.87901 -0.999877,-3.21888 -1.423407,-0.87971 -3.168651,1.66301 -7.77438,11.32687 -2.221735,4.6617 -6.331683,11.20076 -9.133218,14.53125 -2.801534,3.33048 -6.773904,8.37574 -8.827487,11.21168 -3.386403,4.67652 -3.729932,5.67959 -3.692348,10.78125 0.05732,7.77998 4.464864,17.0162 9.520788,19.95123 7.115193,4.13046 11.531522,9.31547 11.531522,13.53862 0,3.74648 -1.398372,3.20414 -2.668417,-1.03488 -1.237631,-4.13085 -1.80047,-4.69136 -9.162403,-9.12449 l -5.328641,-3.20873 0.595909,9.62662 c 0.686612,11.09192 4.05559,25.1111 7.43202,30.92655 2.79299,4.81055 3.948322,8.23133 2.780046,8.23133 -0.46906,0 -2.335356,-3.26953 -4.147324,-7.26563 z m 407.06131,5.39063 c 1.87933,-1.21451 7.78186,-1.21451 7.03125,0 -0.31867,0.51562 -2.34748,0.93104 -4.50846,0.92315 -2.88217,-0.0105 -3.55436,-0.2565 -2.52279,-0.92315 z m -14.23828,-5.32792 c 0.67675,-0.27081 1.48535,-0.23751 1.79688,0.074 0.31152,0.31152 -0.2422,0.5331 -1.23047,0.4924 -1.09214,-0.045 -1.31428,-0.26713 -0.56641,-0.5664 z m 22.4414,-0.91797 c 0.64454,-0.26007 1.69922,-0.26007 2.34375,0 0.64454,0.26007 0.11719,0.47287 -1.17187,0.47287 -1.28906,0 -1.81641,-0.2128 -1.17188,-0.47287 z M 409.21875,285 c 0.31867,-0.51563 2.03107,-0.9375 3.80533,-0.9375 1.77426,0 3.22592,0.42187 3.22592,0.9375 0,0.51562 -1.7124,0.9375 -3.80533,0.9375 -2.29815,0 -3.57584,-0.37132 -3.22592,-0.9375 z m -22.03125,-3.84774 c 0,-1.0621 -0.26577,-1.02994 10.3125,-1.24791 4.89844,-0.10093 10.17187,0.11737 11.71875,0.4851 l 2.8125,0.66862 -3.28125,0.17849 c -12.26808,0.66733 -21.5625,0.63099 -21.5625,-0.0843 z m 33.04687,-0.54851 c 0.90235,-0.2358 2.37891,-0.2358 3.28125,0 0.90235,0.23581 0.16407,0.42875 -1.64062,0.42875 -1.80469,0 -2.54297,-0.19294 -1.64063,-0.42875 z m 20.90912,-0.21077 c -0.27925,-0.45183 0.0465,-1.03419 0.72389,-1.29412 1.60932,-0.61755 13.75764,0.36051 13.75757,1.10762 -7e-5,0.91657 -13.91946,1.09583 -14.48146,0.1865 z m -49.62979,-3.65663 c -0.31099,-0.50318 0.0995,-1.17002 0.91211,-1.48187 2.40869,-0.9243 9.76169,-0.6452 9.76169,0.37052 0,0.51562 -0.52734,0.95894 -1.17188,0.98514 -0.64453,0.0263 -2.91891,0.27117 -5.05418,0.54436 -2.13528,0.27321 -4.13676,0.085 -4.44774,-0.41815 z M 410.625,275.625 c 0,-0.51563 1.58203,-0.93104 3.51562,-0.92315 2.61505,0.0107 3.1554,0.24717 2.10938,0.92315 -1.84771,1.19408 -5.625,1.19408 -5.625,0 z m 14.31472,-0.64968 c 0.91215,-0.23769 2.17778,-0.22206 2.8125,0.0348 0.63471,0.25681 -0.1116,0.45129 -1.65847,0.43218 -1.54688,-0.0191 -2.06619,-0.22922 -1.15403,-0.46691 z M 451.875,273.75 c -3.86363,-0.60067 -3.64661,-0.66774 2.57812,-0.7967 4.00013,-0.0829 6.79688,0.24496 6.79688,0.7967 0,1.02026 -2.81256,1.02026 -9.375,0 z m -52.5,-2.8125 c -0.9812,-0.6341 0.57735,-0.90878 5.15625,-0.90878 4.5789,0 6.13745,0.27468 5.15625,0.90878 -0.77344,0.49984 -3.09375,0.90878 -5.15625,0.90878 -2.0625,0 -4.38281,-0.40894 -5.15625,-0.90878 z M 417.1875,270 c 0,-0.51563 1.58203,-0.90785 3.51562,-0.8716 2.82019,0.0529 3.14473,0.22527 1.64063,0.8716 -2.60521,1.1195 -5.15625,1.1195 -5.15625,0 z m 38.20312,-1.67453 c -1.41796,-0.17876 -2.57812,-0.71886 -2.57812,-1.20024 0,-1.11958 6.2808,-1.15199 6.97054,-0.036 0.68519,1.10866 -1.19858,1.63883 -4.39242,1.2362 z M 397.5,266.36949 c 0,-1.31717 2.37079,-1.76727 12.42187,-2.35832 10.63138,-0.6252 10.72011,0.83125 0.10038,1.64754 -4.45651,0.34255 -9.09713,0.87241 -10.3125,1.17744 -1.30842,0.32839 -2.20975,0.13805 -2.20975,-0.46666 z m -75.34452,-9.26012 c 0.97608,-8.72014 1.0473,-23.51633 0.17487,-36.32812 -0.48283,-7.09043 -0.39093,-8.80386 0.37713,-7.03125 1.20513,2.78131 2.16629,38.04968 1.23918,45.47 -0.35425,2.83525 -1.08516,5.155 -1.62426,5.155 -0.66756,0 -0.7208,-2.31737 -0.16692,-7.26563 z M 32.5,262.8125 c -0.34375,-0.34375 -0.611582,-2.34765 -0.595185,-4.45313 0.02781,-3.56951 0.122803,-3.70518 1.40625,-2.00831 2.293665,3.03249 1.564997,8.8375 -0.811065,6.46144 z m 368.28125,-3.125 c 4.29677,-1.09334 11.92572,-1.09334 11.25,0 -0.31867,0.51562 -3.61311,0.88759 -7.32096,0.82658 -5.08777,-0.0837 -6.05161,-0.28648 -3.92904,-0.82658 z m 18.28125,-0.36845 c 0,-0.20265 0.63281,-0.61128 1.40625,-0.90808 0.77344,-0.29679 1.40625,-0.13099 1.40625,0.36845 0,0.49944 -0.63281,0.90808 -1.40625,0.90808 -0.77344,0 -1.40625,-0.16581 -1.40625,-0.36845 z m 28.125,-3.38155 c 1.85349,-1.19782 7.5,-1.19782 7.5,0 0,0.51562 -2.00391,0.93104 -4.45313,0.92315 -3.22075,-0.0104 -4.06395,-0.26586 -3.04687,-0.92315 z m -47.8125,-1.11205 c 0,-0.41963 3.05859,-0.72964 6.79687,-0.68893 7.88414,0.0859 7.4676,0.56998 -0.9375,1.08961 -3.22265,0.19925 -5.85937,0.0189 -5.85937,-0.40068 z m 51.32812,-3.25884 c 0.64454,-0.26007 1.69922,-0.26007 2.34375,0 0.64454,0.26007 0.11719,0.47287 -1.17187,0.47287 -1.28906,0 -1.81641,-0.2128 -1.17188,-0.47287 z m -5.5664,-0.95703 c 0.67675,-0.27081 1.48535,-0.23751 1.79688,0.074 0.31152,0.31152 -0.2422,0.5331 -1.23047,0.4924 -1.09214,-0.045 -1.31428,-0.26713 -0.56641,-0.5664 z M 51.749301,249.40925 c -5.517076,-1.34501 -4.495729,-2.00576 2.658688,-1.72002 3.854166,0.15394 6.998261,0.70071 6.998261,1.21702 0,1.19384 -5.62203,1.48667 -9.656949,0.503 z M 402.1875,249.375 c 0.77344,-0.49984 2.67187,-0.90878 4.21875,-0.90878 1.54687,0 3.44531,0.40894 4.21875,0.90878 0.99341,0.64199 -0.24511,0.90878 -4.21875,0.90878 -3.97364,0 -5.21216,-0.26679 -4.21875,-0.90878 z m 17.8125,0 c 0,-0.51563 0.42187,-0.9375 0.9375,-0.9375 0.51562,0 0.9375,0.42187 0.9375,0.9375 0,0.51562 -0.42188,0.9375 -0.9375,0.9375 -0.51563,0 -0.9375,-0.42188 -0.9375,-0.9375 z m -87.41954,-2.57813 c -0.18849,-0.38671 -0.058,-2.17968 0.29001,-3.98437 l 0.6327,-3.28125 0.12342,3.98437 c 0.11583,3.73953 -0.25535,4.90374 -1.04613,3.28125 z m 106.63829,-0.18644 c -3.55769,-0.59153 -3.44466,-0.64481 2.20422,-1.03885 6.02901,-0.42054 9.09291,0.2326 6.23521,1.32921 -1.73192,0.66459 -2.94744,0.62277 -8.43943,-0.29036 z m -23.66559,-5.69103 c 4.19379,-1.23425 16.16897,-2.10809 19.34123,-1.41134 5.90408,1.29675 1.66064,2.23271 -9.9866,2.2027 -7.65391,-0.0197 -11.01145,-0.30375 -9.35463,-0.79136 z m -32.11566,-2.64882 c 0,-0.99335 1.17645,-1.45697 6.32812,-2.49383 2.75499,-0.55448 4.28646,0.56682 2.34375,1.71603 -1.77378,1.04929 -8.67187,1.66799 -8.67187,0.7778 z m -51.46797,-9.28621 c 0.0445,-1.93359 -0.59122,-6.89062 -1.41284,-11.01562 -1.85014,-9.28867 -1.86231,-10.78125 -0.0879,-10.78125 1.43903,0 1.56989,0.63715 1.82929,8.90625 0.0809,2.57812 0.48208,7.32422 0.89155,10.54687 0.51613,4.06198 0.43076,5.85938 -0.2783,5.85938 -0.5713,0 -0.98702,-1.55189 -0.94176,-3.51563 z M 382.5,224.1628 c 0,-1.06517 2.37425,-1.98598 4.99855,-1.93861 1.60263,0.029 1.36529,0.32646 -1.12181,1.40625 -3.70167,1.60711 -3.87674,1.63116 -3.87674,0.53236 z M 51.22018,221.18196 c -3.026705,-2.38081 -3.186248,-3.69094 -0.360805,-2.96287 1.879005,0.4842 1.968855,0.37223 0.822708,-1.02527 -1.883797,-2.2969 -0.281099,-1.91456 3.243487,0.77378 1.689217,1.28842 4.260288,2.83139 5.713492,3.4288 2.126408,0.87417 2.312925,1.16406 0.955467,1.48502 -0.927697,0.21935 -2.707963,-0.27033 -3.956148,-1.08817 -1.955871,-1.28153 -2.194704,-1.29226 -1.728602,-0.0776 0.787606,2.05246 -1.772182,1.76116 -4.689599,-0.53368 z M 393.5,221.13367 c 0.63594,-0.6407 1.39241,-0.92875 1.68106,-0.6401 0.28864,0.28865 -0.23167,0.81286 -1.15625,1.16492 -1.33613,0.50876 -1.44381,0.40108 -0.52481,-0.52482 z M 393.28125,210 c 0.31867,-0.51563 0.97639,-0.9375 1.46158,-0.9375 0.48519,0 0.88217,0.42187 0.88217,0.9375 0,0.51562 -0.65771,0.9375 -1.46158,0.9375 -0.80387,0 -1.20084,-0.42188 -0.88217,-0.9375 z M 132.1875,209.01989 c 0,-1.50491 4.41986,-5.58239 6.05114,-5.58239 2.10593,0 1.80527,0.7898 -1.46279,3.84262 -3.02573,2.82645 -4.58835,3.41895 -4.58835,1.73977 z m 273.8159,-1.54268 c -0.0362,-1.64535 0.35597,-3.25228 0.8716,-3.57096 1.1244,-0.69492 1.1244,2.07087 0,4.6875 -0.67917,1.58051 -0.81607,1.40515 -0.8716,-1.11654 z m -250.14403,-2.82633 c -1.53882,-0.29639 -2.10937,-1.0619 -2.10937,-2.83014 0,-2.22412 0.13519,-2.30689 1.64062,-1.00451 2.51123,2.17251 5.49547,2.57569 11.68575,1.57877 6.68215,-1.07613 7.98288,-0.47693 3.25394,1.49894 -3.1902,1.33296 -9.70978,1.67397 -14.47094,0.75694 z m 243.1006,-1.60548 c 1.00008,-0.73128 2.01771,-1.13021 2.26141,-0.88653 0.51596,0.51596 -1.90157,2.18069 -3.19744,2.20178 -0.48527,0.008 -0.064,-0.58397 0.93603,-1.31525 z M 149.94659,192.7838 c -0.61896,-2.76579 -0.91216,-5.61344 -0.65157,-6.32813 0.26903,-0.73782 0.73294,-0.0839 1.07337,1.51308 0.32977,1.54687 0.95598,4.39453 1.3916,6.32812 0.43561,1.9336 0.45901,3.51563 0.052,3.51563 -0.40702,0 -1.24645,-2.26292 -1.8654,-5.0287 z m 10.50576,3.30831 c -0.88585,-0.59517 0.0556,-1.04911 3.13279,-1.51056 4.12208,-0.61815 6.13776,-0.24195 4.96852,0.92729 -0.99749,0.99749 -6.85692,1.41935 -8.10131,0.58327 z M 136.875,186.77126 c 0,-0.4008 1.16016,-1.7854 2.57812,-3.07689 1.41797,-1.2915 3.50391,-3.60028 4.63542,-5.13065 1.57741,-2.13343 2.06944,-2.39489 2.10937,-1.1209 0.0287,0.91386 -1.68914,3.55058 -3.81731,5.85937 -3.64773,3.95732 -5.5056,5.12797 -5.5056,3.46907 z m 89.0625,-8.3855 c -3.86712,-0.46487 -5.66708,-1.81871 -3.51563,-2.6443 1.99474,-0.76545 9.23575,0.73542 9.23793,1.91479 0.002,1.10452 -1.26206,1.26567 -5.7223,0.72951 z m 21.78397,-1.17879 c -2.1985,-0.99789 -5.5735,-2.07174 -7.5,-2.38634 -7.55837,-1.23428 -8.65483,-1.56888 -8.0973,-2.47099 1.28683,-2.08212 20.84613,2.96752 21.72669,5.60919 0.52818,1.58452 -1.54126,1.33068 -6.12939,-0.75186 z m -94.67255,-3.30072 c 0.0104,-2.0625 0.2024,-2.79586 0.42664,-1.62969 0.22424,1.16616 0.21572,2.85366 -0.0189,3.75 -0.23465,0.89633 -0.41813,-0.0579 -0.40772,-2.12031 z M 152.9228,162.1875 c -0.045,-1.80469 0.51635,-5.17969 1.24746,-7.5 1.69644,-5.38388 1.76069,-2.18719 0.10365,5.15625 -1.05863,4.69148 -1.28286,5.08045 -1.35111,2.34375 z m 53.49621,-10.5776 c -1.64135,-1.97771 -2.96784,-6.19519 -2.11442,-6.72264 1.1512,-0.71147 2.56812,1.37186 3.31789,4.87836 0.69917,3.26981 0.38244,3.75518 -1.20347,1.84428 z M 157.5,144.375 c 0,-1.03125 0.38238,-1.875 0.84973,-1.875 0.46735,0 0.62909,0.84375 0.35941,1.875 -0.26968,1.03125 -0.65206,1.875 -0.84973,1.875 -0.19767,0 -0.35941,-0.84375 -0.35941,-1.875 z m 2.31542,-8.44485 c 0.72276,-2.37549 4.12379,-8.43015 4.73539,-8.43015 0.85353,0 -2.66903,8.46164 -3.97313,9.54395 -1.29279,1.07292 -1.38611,0.93657 -0.76226,-1.1138 z m 147.92981,-15.22702 c 0.56785,-8.61964 1.23799,-11.01563 3.08099,-11.01563 2.27547,0 2.45653,1.86718 0.48968,5.04963 -1.0675,1.72724 -1.90038,4.35626 -1.85085,5.84227 0.0894,2.68437 0.10007,2.67913 1.64062,-0.80899 0.85282,-1.93097 2.07792,-3.513 2.72245,-3.51563 1.62475,-0.007 1.39684,1.76609 -0.72253,5.62022 -0.9924,1.80469 -2.07602,4.01953 -2.40806,4.92188 -0.33204,0.90234 -1.24679,1.64062 -2.03277,1.64062 -1.2061,0 -1.34956,-1.20667 -0.91953,-7.73437 z m -139.93273,0.34502 c 0,-0.51562 0.42187,-1.19822 0.9375,-1.5169 0.51562,-0.31868 0.9375,-0.15753 0.9375,0.3581 0,0.51562 -0.42188,1.19822 -0.9375,1.5169 -0.51563,0.31868 -0.9375,0.15753 -0.9375,-0.3581 z M 320.625,117.1774 c 0,-1.30912 2.89141,-19.168328 3.10697,-19.190622 0.0959,-0.0099 1.1235,-0.548944 2.28365,-1.197844 2.05005,-1.146637 2.10938,-1.06094 2.10938,3.046875 0,3.999451 -1.15873,5.614571 -2.19161,3.054821 -0.26007,-0.64454 -0.51543,0.72656 -0.56746,3.04687 -0.052,2.32031 -0.90847,6.01172 -1.90318,8.20313 -1.74476,3.84376 -2.83775,5.01342 -2.83775,3.03677 z M 338.4375,101.25 c 0,-0.51562 0.44677,-0.9375 0.99283,-0.9375 0.54606,0 0.73209,0.42188 0.41342,0.9375 -0.31867,0.51563 -0.76545,0.9375 -0.99283,0.9375 -0.22738,0 -0.41342,-0.42187 -0.41342,-0.9375 z m -157.5,-1.698694 c 0,-0.418659 1.37109,-1.748137 3.04687,-2.95439 l 3.04688,-2.193188 -2.75352,2.954381 c -2.91829,3.131171 -3.34023,3.408221 -3.34023,2.193197 z m 142.14839,-6.992317 c -0.30816,-1.149632 -0.56605,-4.12188 -0.57309,-6.604996 -0.008,-2.483117 -0.37915,-5.225305 -0.8269,-6.09375 -0.44776,-0.868447 -1.09968,-3.161024 -1.44873,-5.094618 -0.49713,-2.753933 -0.3365,-3.515625 0.74139,-3.515625 0.76376,0 1.87988,1.564281 2.50841,3.515625 0.62281,1.933594 1.54362,4.034155 2.04625,4.667916 0.59565,0.751066 0.57709,2.118342 -0.0533,3.926733 -0.73377,2.10491 -0.66826,3.02252 0.27148,3.802436 0.68127,0.565395 1.39948,2.405582 1.59605,4.089303 0.30198,2.586703 0.0428,3.087346 -1.67193,3.229265 -1.38594,0.114703 -2.20696,-0.494737 -2.58961,-1.922289 z M 186.5625,89.649755 c 0,-1.753767 0.52294,-2.056608 4.92187,-2.850356 3.92637,-0.708474 4.9347,0.841138 1.40625,2.16112 -5.39197,2.017125 -6.32812,2.119086 -6.32812,0.689236 z m 2.32209,-5.250822 c 0.92136,-1.018085 2.41775,-2.086745 3.32533,-2.374799 0.90757,-0.288052 1.86713,-1.353511 2.13234,-2.367683 0.33616,-1.285484 1.28553,-1.843951 3.13464,-1.843951 1.45884,0 4.87422,-1.124119 7.58973,-2.498041 2.71551,-1.373922 5.25281,-2.168193 5.63845,-1.765046 0.38565,0.403147 -0.0808,1.210859 -1.03661,1.794916 -0.95578,0.584057 -3.69797,2.30688 -6.09375,3.828497 -4.25293,2.701131 -13.82489,7.064176 -15.5169,7.072832 -0.46663,0.0023 -0.0946,-0.828638 0.82677,-1.846725 z m 11.76025,-10.507632 c 0.0109,-0.679278 2.43669,-2.40995 5.39062,-3.845938 4.60513,-2.238681 4.9151,-2.538467 2.1743,-2.102889 l -3.19649,0.507996 3.66524,-2.664655 c 2.01589,-1.46556 4.71993,-3.781503 6.00899,-5.146538 1.28906,-1.365036 2.66016,-2.489172 3.04688,-2.49808 1.23471,-0.02844 0.75395,2.524531 -0.70313,3.733803 -0.77344,0.641896 -1.40625,2.10473 -1.40625,3.250741 0,2.447942 -1.87384,4.268747 -7.03125,6.832237 -5.67153,2.819038 -7.97212,3.378585 -7.94891,1.933323 z M 195,27.1875 c 0,-0.515625 0.44677,-0.9375 0.99283,-0.9375 0.54606,0 0.7321,0.421875 0.41342,0.9375 -0.31868,0.515625 -0.76545,0.9375 -0.99283,0.9375 C 195.18604,28.125 195,27.703125 195,27.1875 Z m 4.61751,-3.619214 c 1.36748,-2.555167 6.45507,-6.062679 12.18299,-8.399265 5.22202,-2.130212 12.262,-3.657438 12.262,-2.660069 0,0.619376 -8.49008,4.632197 -12.1875,5.760394 -1.28906,0.393333 -4.78083,2.132326 -7.75948,3.864428 -4.0817,2.37353 -5.18967,2.726887 -4.49801,1.434512 z"
     id="path8182"
     inkscape:connector-curvature="0" />
</svg>
